<svg width="175" height="19" viewBox="0 0 175 19" fill="none" xmlns="http://www.w3.org/2000/svg">
<path d="M23.512 7.368L21.896 12.808C21.032 15.768 20.168 17.112 19.4 17.112C19.272 17.112 19.16 17 19.128 16.84C19.08 16.568 18.84 16.12 18.376 16.12C17.96 16.12 17.688 16.44 17.688 16.808C17.688 17.32 18.2 17.752 18.84 17.752C20.552 17.752 21.688 15.976 22.664 13.48C23.464 11.432 24.2 8.664 24.616 7.368H26.136C26.264 7.368 26.296 7.352 26.312 7.256L26.392 6.968C26.424 6.824 26.392 6.776 26.296 6.776H24.744C25.272 4.984 25.848 2.616 27.336 2.616C27.816 2.616 27.976 2.92 27.992 3.08C28.04 3.432 28.184 3.72 28.696 3.72C29.016 3.72 29.336 3.48 29.336 2.984C29.336 2.6 28.824 2.04 27.896 2.04C26.856 2.04 25.976 2.616 25.528 3.128C24.68 4.072 24.136 5.4 23.656 6.776H22.264C22.136 6.776 22.104 6.824 22.072 6.936L22.008 7.208C21.976 7.32 22.008 7.368 22.088 7.368H23.512ZM28.105 13.16C30.425 13.16 31.817 9.976 31.817 8.216C31.817 7.128 31.177 6.344 30.105 6.344C27.977 6.344 26.457 9.08 26.457 11.096C26.457 12.312 27.225 13.16 28.105 13.16ZM27.865 12.392C27.481 12.392 27.129 12.088 27.129 11.576C27.129 10.824 27.513 9.848 28.057 8.984C28.857 7.688 29.705 7.08 30.377 7.08C30.905 7.08 31.193 7.48 31.177 7.976C31.177 9.032 29.529 12.392 27.865 12.392ZM33.6964 13C33.8244 13 33.8724 13 33.9044 12.888L34.4324 11.272C34.6724 10.552 34.8644 10.184 35.0564 9.88C35.6964 8.824 36.5924 7.448 37.0244 7.448C37.2324 7.448 37.3124 7.512 37.4404 7.64C37.5684 7.768 37.6964 7.8 37.8404 7.8C38.1444 7.8 38.4644 7.48 38.4644 7.064C38.4644 6.632 38.1764 6.344 37.7124 6.344C36.8164 6.344 35.5364 8.312 35.1044 9.208L35.0244 9.176C35.3444 8.104 35.6164 7.208 35.6004 6.904C35.6004 6.616 35.4724 6.344 35.1524 6.344C34.0644 6.344 33.1044 7.432 32.7684 7.928C32.7364 7.976 32.7364 8.024 32.7684 8.056L32.9284 8.216C32.9604 8.248 33.0244 8.264 33.0564 8.216C33.2804 7.944 34.0004 7.224 34.3204 7.224C34.4644 7.224 34.5924 7.32 34.5924 7.464C34.5924 7.688 34.0964 9.368 33.8084 10.264L32.9124 12.856C32.8804 12.936 32.9444 13 33.0564 13H33.6964ZM44.687 6.616C43.455 7.08 42.703 7.816 42.143 8.488C42.095 8.536 42.111 8.584 42.159 8.632L42.335 8.792C42.367 8.824 42.431 8.84 42.479 8.776C42.815 8.36 43.679 7.56 44.463 7.336L41.327 15.96C40.991 16.888 40.735 17.256 40.111 17.256H39.743C39.663 17.256 39.647 17.32 39.631 17.384L39.535 17.704C39.519 17.768 39.551 17.8 39.647 17.8C39.823 17.8 40.255 17.752 41.359 17.752C42.383 17.752 42.863 17.8 43.039 17.8C43.167 17.8 43.199 17.752 43.231 17.704L43.343 17.384C43.359 17.336 43.311 17.256 43.231 17.256H42.783C42.111 17.256 41.983 17.032 42.271 16.168L43.407 13C44.719 12.856 46.031 12.312 46.735 11.8C48.143 10.744 48.639 9.592 48.639 8.472C48.639 7.432 47.951 6.344 46.431 6.344C46.351 6.344 46.223 6.344 46.111 6.36C45.999 6.36 45.887 6.376 45.791 6.392L46.527 4.728C46.559 4.68 46.559 4.632 46.559 4.6C46.559 4.568 46.543 4.536 46.511 4.536C46.479 4.536 46.431 4.536 46.399 4.552L45.407 4.904C45.295 4.952 45.247 5 45.199 5.128L44.687 6.616ZM45.567 7.048C45.679 7.032 45.839 7 46.079 7C46.783 7 47.519 7.608 47.519 8.84C47.519 10.808 45.519 12.216 43.599 12.52L45.567 7.048ZM50.7858 13.16C52.0178 13.16 52.9778 12.104 53.3778 11.544C53.4418 11.496 53.4418 11.448 53.3618 11.4L53.1858 11.256C53.1218 11.192 53.0738 11.224 53.0418 11.272C52.7057 11.816 52.0018 12.408 51.2178 12.408C50.9138 12.408 50.3858 12.12 50.3858 11.4C50.3858 10.648 50.5138 10.12 50.5938 9.928C51.1858 9.88 52.0498 9.704 52.9138 9.272C53.8098 8.808 54.4018 7.976 54.4018 7.192C54.4018 6.808 54.1138 6.344 53.4898 6.344C52.7218 6.344 51.8578 6.904 51.3458 7.416C50.1778 8.568 49.2978 10.248 49.2978 11.592C49.2978 12.648 49.7458 13.16 50.7858 13.16ZM52.8658 7.048C53.2178 7.048 53.3778 7.336 53.3778 7.656C53.3778 8.84 51.2818 9.512 50.7218 9.464C50.8498 8.888 51.8418 7.048 52.8658 7.048ZM56.3639 13.16C57.5959 13.16 58.5559 12.104 58.9559 11.544C59.0199 11.496 59.0199 11.448 58.9399 11.4L58.7639 11.256C58.6999 11.192 58.6519 11.224 58.6199 11.272C58.2839 11.816 57.5799 12.408 56.7959 12.408C56.4919 12.408 55.9639 12.12 55.9639 11.4C55.9639 10.648 56.0919 10.12 56.1719 9.928C56.7639 9.88 57.6279 9.704 58.4919 9.272C59.3879 8.808 59.9799 7.976 59.9799 7.192C59.9799 6.808 59.6919 6.344 59.0679 6.344C58.2999 6.344 57.4359 6.904 56.9239 7.416C55.7559 8.568 54.8759 10.248 54.8759 11.592C54.8759 12.648 55.3239 13.16 56.3639 13.16ZM58.4439 7.048C58.7959 7.048 58.9559 7.336 58.9559 7.656C58.9559 8.84 56.8599 9.512 56.2999 9.464C56.4279 8.888 57.4199 7.048 58.4439 7.048ZM61.5401 13C61.6681 13 61.7161 13 61.7481 12.888L62.2761 11.272C62.5161 10.552 62.7081 10.184 62.9001 9.88C63.5401 8.824 64.4361 7.448 64.8681 7.448C65.0761 7.448 65.1561 7.512 65.2841 7.64C65.4121 7.768 65.5401 7.8 65.6841 7.8C65.9881 7.8 66.3081 7.48 66.3081 7.064C66.3081 6.632 66.0201 6.344 65.5561 6.344C64.6601 6.344 63.3801 8.312 62.9481 9.208L62.8681 9.176C63.1881 8.104 63.4601 7.208 63.4441 6.904C63.4441 6.616 63.3161 6.344 62.9961 6.344C61.9081 6.344 60.9481 7.432 60.6121 7.928C60.5801 7.976 60.5801 8.024 60.6121 8.056L60.7721 8.216C60.8041 8.248 60.8681 8.264 60.9001 8.216C61.1241 7.944 61.8441 7.224 62.1641 7.224C62.3081 7.224 62.4361 7.32 62.4361 7.464C62.4361 7.688 61.9401 9.368 61.6521 10.264L60.7561 12.856C60.7241 12.936 60.7881 13 60.9001 13H61.5401ZM70.9308 13C71.0588 13 71.1068 13 71.1388 12.888L71.6668 11.272C71.9068 10.552 72.0988 10.184 72.2908 9.88C72.9308 8.824 73.8268 7.448 74.2588 7.448C74.4668 7.448 74.5468 7.512 74.6748 7.64C74.8028 7.768 74.9308 7.8 75.0748 7.8C75.3788 7.8 75.6988 7.48 75.6988 7.064C75.6988 6.632 75.4108 6.344 74.9468 6.344C74.0508 6.344 72.7708 8.312 72.3388 9.208L72.2588 9.176C72.5788 8.104 72.8508 7.208 72.8348 6.904C72.8348 6.616 72.7068 6.344 72.3868 6.344C71.2988 6.344 70.3388 7.432 70.0028 7.928C69.9708 7.976 69.9708 8.024 70.0028 8.056L70.1628 8.216C70.1948 8.248 70.2588 8.264 70.2908 8.216C70.5148 7.944 71.2348 7.224 71.5548 7.224C71.6988 7.224 71.8268 7.32 71.8268 7.464C71.8268 7.688 71.3307 9.368 71.0428 10.264L70.1468 12.856C70.1148 12.936 70.1788 13 70.2908 13H70.9308ZM77.192 13.16C78.424 13.16 79.384 12.104 79.784 11.544C79.848 11.496 79.848 11.448 79.768 11.4L79.592 11.256C79.528 11.192 79.48 11.224 79.448 11.272C79.112 11.816 78.408 12.408 77.624 12.408C77.32 12.408 76.792 12.12 76.792 11.4C76.792 10.648 76.92 10.12 77 9.928C77.592 9.88 78.456 9.704 79.32 9.272C80.216 8.808 80.808 7.976 80.808 7.192C80.808 6.808 80.52 6.344 79.896 6.344C79.128 6.344 78.264 6.904 77.752 7.416C76.584 8.568 75.704 10.248 75.704 11.592C75.704 12.648 76.152 13.16 77.192 13.16ZM79.272 7.048C79.624 7.048 79.784 7.336 79.784 7.656C79.784 8.84 77.688 9.512 77.128 9.464C77.256 8.888 78.248 7.048 79.272 7.048ZM83.8083 7.352C84.1123 7.352 84.9603 7.208 85.2963 6.92L85.4083 6.968C84.4803 8.056 83.1523 10.024 83.1523 11.512C83.1523 12.664 83.9363 13.16 84.7363 13.16C86.0483 13.16 87.3443 12.024 88.0643 10.776C88.7683 9.56 89.1203 7.96 89.1203 7.192C89.1203 6.808 88.9443 6.344 88.4963 6.344C88.0323 6.344 87.7763 6.616 87.7763 7.048C87.7763 7.24 87.8883 7.416 88.0163 7.704C88.1283 7.96 88.1443 8.28 88.1443 8.536C88.1443 10.152 86.7523 12.312 85.3763 12.312C84.8163 12.312 84.2403 11.912 84.2403 10.824C84.2403 9.224 85.7923 7.064 86.1283 6.648C86.2883 6.44 86.1283 6.344 85.9203 6.344C85.7443 6.344 85.5523 6.424 83.9203 6.424C82.7682 6.424 82.4163 6.84 82.0963 7.192C81.8723 7.448 81.4723 8.12 81.4723 8.744C81.4723 9.432 81.9043 9.656 82.2083 9.656C82.6243 9.656 82.8003 9.384 82.8003 9.128C82.8003 8.872 82.5603 8.712 82.4483 8.648C82.3043 8.568 82.1123 8.472 82.0963 8.184C82.1123 7.704 82.4643 7.352 82.9763 7.352H83.8083ZM90.5189 13.16C91.8469 13.16 93.1269 11.624 93.2229 11.496C93.2709 11.416 93.2549 11.384 93.1909 11.304L93.0629 11.192C92.9829 11.112 92.9189 11.112 92.8869 11.16C92.8069 11.304 91.9429 12.216 91.6069 12.28C91.4789 12.248 91.4309 12.152 91.4309 12.008C91.4309 11.896 91.4949 11.544 91.7189 10.952L92.6469 8.52C92.9349 7.752 93.1909 7.032 93.1909 6.744C93.1909 6.472 92.9989 6.344 92.8069 6.344C91.7829 6.296 90.1509 8.216 90.0869 8.312C90.0389 8.376 90.0709 8.408 90.1349 8.456L90.2629 8.6C90.3109 8.648 90.3749 8.648 90.4389 8.584C90.6949 8.328 91.4469 7.464 91.7189 7.464C91.8469 7.464 91.9429 7.528 91.9429 7.672C91.9429 7.864 91.8149 8.184 91.6549 8.616L91.1909 9.864C90.5189 11.656 90.2469 12.392 90.2469 12.76C90.2469 13.016 90.3589 13.144 90.5189 13.16ZM93.0949 4.2C93.7509 4.2 93.9429 3.64 93.9429 3.4C93.9429 3.032 93.6549 2.632 93.0949 2.632C92.5989 2.632 92.2629 3 92.2629 3.432C92.2629 3.608 92.3909 4.2 93.0949 4.2ZM95.8326 13.16C97.0646 13.16 98.0246 12.104 98.4246 11.544C98.4886 11.496 98.4886 11.448 98.4086 11.4L98.2326 11.256C98.1686 11.192 98.1206 11.224 98.0886 11.272C97.7526 11.816 97.0486 12.408 96.2646 12.408C95.9606 12.408 95.4326 12.12 95.4326 11.4C95.4326 10.648 95.5606 10.12 95.6406 9.928C96.2326 9.88 97.0966 9.704 97.9606 9.272C98.8566 8.808 99.4486 7.976 99.4486 7.192C99.4486 6.808 99.1606 6.344 98.5366 6.344C97.7686 6.344 96.9046 6.904 96.3926 7.416C95.2246 8.568 94.3446 10.248 94.3446 11.592C94.3446 12.648 94.7926 13.16 95.8326 13.16ZM97.9126 7.048C98.2646 7.048 98.4246 7.336 98.4246 7.656C98.4246 8.84 96.3286 9.512 95.7686 9.464C95.8966 8.888 96.8886 7.048 97.9126 7.048ZM102.799 7.416C103.167 7.416 103.775 7.24 103.967 7.144L104.079 7.256C103.439 8.024 101.951 10.2 101.967 11.528C101.967 12.616 102.735 13.16 103.423 13.16C104.639 13.16 105.727 12.072 106.031 11.688C106.095 12.232 106.671 13.16 107.647 13.16C108.863 13.16 109.551 12.264 109.999 11.688C110.735 10.68 111.087 9.144 111.087 7.992C111.087 6.6 110.671 6.344 110.287 6.344C109.903 6.344 109.583 6.6 109.583 6.984C109.583 7.384 109.967 7.704 110.111 7.848C110.239 7.992 110.351 8.552 110.351 8.824C110.351 10.984 109.183 12.168 108.111 12.168C107.343 12.168 106.703 11.56 106.703 10.856C106.703 10.44 106.879 9.976 107.071 9.4C107.503 8.184 107.903 7.208 107.903 6.936C107.903 6.744 107.791 6.552 107.503 6.552C107.199 6.552 106.911 6.664 106.783 7.064C106.655 7.64 106.623 8.408 106.511 9.032C106.383 9.704 106.143 10.648 105.871 11.08C105.407 11.8 104.719 12.2 103.999 12.2C103.455 12.2 103.039 11.784 103.039 11.032C103.039 9.528 104.447 7.256 104.927 6.728C105.119 6.536 105.007 6.392 104.799 6.408L103.327 6.504H102.159C101.663 6.504 101.151 6.824 100.943 7.064C100.575 7.48 100.239 7.928 100.239 8.504C100.239 9.192 100.719 9.448 100.991 9.448C101.407 9.448 101.599 9.208 101.599 8.92C101.599 8.6 101.359 8.488 101.263 8.424C101.119 8.328 100.943 8.232 100.959 7.944C100.959 7.64 101.231 7.416 101.535 7.416H102.799ZM113.52 13.16C114.752 13.16 115.712 12.104 116.112 11.544C116.176 11.496 116.176 11.448 116.096 11.4L115.92 11.256C115.856 11.192 115.808 11.224 115.776 11.272C115.44 11.816 114.736 12.408 113.952 12.408C113.648 12.408 113.12 12.12 113.12 11.4C113.12 10.648 113.248 10.12 113.328 9.928C113.92 9.88 114.784 9.704 115.648 9.272C116.544 8.808 117.136 7.976 117.136 7.192C117.136 6.808 116.848 6.344 116.224 6.344C115.456 6.344 114.592 6.904 114.08 7.416C112.912 8.568 112.032 10.248 112.032 11.592C112.032 12.648 112.48 13.16 113.52 13.16ZM115.6 7.048C115.952 7.048 116.112 7.336 116.112 7.656C116.112 8.84 114.016 9.512 113.456 9.464C113.584 8.888 114.576 7.048 115.6 7.048ZM124.058 2.744C124.49 2.744 124.57 3.064 124.458 3.368L123.226 6.872C122.954 6.552 122.65 6.344 122.218 6.344C121.146 6.344 120.218 7.144 119.706 7.64C118.394 8.936 117.498 10.84 117.498 12.104C117.498 12.792 117.978 13.16 118.522 13.16C119.61 13.16 121.114 11.688 121.898 10.44L122.026 10.472C121.674 11.384 121.322 12.472 121.322 12.792C121.322 13.08 121.498 13.16 121.754 13.16C122.602 13.16 123.978 11.88 124.09 11.736C124.138 11.672 124.138 11.608 124.09 11.576L123.93 11.416C123.882 11.352 123.818 11.352 123.754 11.4C123.674 11.496 122.906 12.232 122.634 12.232C122.41 12.232 122.426 11.992 122.57 11.496C122.842 10.536 125.642 3.048 125.882 2.488C125.946 2.36 125.914 2.2 125.69 2.2H123.722C123.578 2.2 123.546 2.232 123.53 2.296L123.434 2.632C123.418 2.68 123.434 2.744 123.562 2.744H124.058ZM119.13 12.344C118.906 12.344 118.666 12.168 118.666 11.832C118.666 10.36 120.362 6.856 121.866 6.856C122.378 6.856 122.714 7.16 122.714 7.912C122.714 8.536 122.122 9.544 121.674 10.152C121.034 11.032 119.802 12.344 119.13 12.344ZM129.837 13C129.965 13 130.013 13 130.045 12.888L130.573 11.272C130.813 10.552 131.005 10.184 131.197 9.88C131.837 8.824 132.733 7.448 133.165 7.448C133.373 7.448 133.453 7.512 133.581 7.64C133.709 7.768 133.837 7.8 133.981 7.8C134.285 7.8 134.605 7.48 134.605 7.064C134.605 6.632 134.317 6.344 133.853 6.344C132.957 6.344 131.677 8.312 131.245 9.208L131.165 9.176C131.485 8.104 131.757 7.208 131.741 6.904C131.741 6.616 131.613 6.344 131.293 6.344C130.205 6.344 129.245 7.432 128.909 7.928C128.877 7.976 128.877 8.024 128.909 8.056L129.069 8.216C129.101 8.248 129.165 8.264 129.197 8.216C129.421 7.944 130.141 7.224 130.461 7.224C130.605 7.224 130.733 7.32 130.733 7.464C130.733 7.688 130.237 9.368 129.949 10.264L129.053 12.856C129.021 12.936 129.085 13 129.197 13H129.837ZM136.098 13.16C137.33 13.16 138.29 12.104 138.69 11.544C138.754 11.496 138.754 11.448 138.674 11.4L138.498 11.256C138.434 11.192 138.386 11.224 138.354 11.272C138.018 11.816 137.314 12.408 136.53 12.408C136.226 12.408 135.698 12.12 135.698 11.4C135.698 10.648 135.826 10.12 135.906 9.928C136.498 9.88 137.362 9.704 138.226 9.272C139.122 8.808 139.714 7.976 139.714 7.192C139.714 6.808 139.426 6.344 138.802 6.344C138.034 6.344 137.17 6.904 136.658 7.416C135.49 8.568 134.61 10.248 134.61 11.592C134.61 12.648 135.058 13.16 136.098 13.16ZM138.178 7.048C138.53 7.048 138.69 7.336 138.69 7.656C138.69 8.84 136.594 9.512 136.034 9.464C136.162 8.888 137.154 7.048 138.178 7.048ZM141.18 13.16C142.284 13.16 143.292 12.408 143.292 11.16C143.292 10.312 142.78 9.528 142.684 9.336C142.588 9.112 142.108 8.44 142.108 7.848C142.108 7.272 142.572 6.84 142.892 6.84C143.212 6.84 143.228 7.096 143.308 7.288C143.42 7.56 143.66 7.672 143.852 7.672C144.092 7.672 144.348 7.448 144.348 7.16C144.348 6.536 143.692 6.344 143.212 6.344C142.076 6.344 141.196 7.368 141.196 8.296C141.18 9.032 141.548 9.592 141.66 9.864C141.868 10.376 142.348 11.032 142.348 11.72C142.348 12.28 141.916 12.696 141.452 12.696C141.052 12.696 140.972 12.52 140.876 12.248C140.78 11.976 140.572 11.736 140.22 11.736C139.884 11.736 139.676 12.04 139.676 12.264C139.676 12.792 140.252 13.16 141.18 13.16ZM146.38 13.16C147.612 13.16 148.572 12.104 148.972 11.544C149.036 11.496 149.036 11.448 148.956 11.4L148.78 11.256C148.716 11.192 148.668 11.224 148.636 11.272C148.299 11.816 147.596 12.408 146.812 12.408C146.508 12.408 145.98 12.12 145.98 11.4C145.98 10.648 146.108 10.12 146.188 9.928C146.78 9.88 147.644 9.704 148.508 9.272C149.404 8.808 149.996 7.976 149.996 7.192C149.996 6.808 149.708 6.344 149.084 6.344C148.316 6.344 147.452 6.904 146.94 7.416C145.772 8.568 144.892 10.248 144.892 11.592C144.892 12.648 145.34 13.16 146.38 13.16ZM148.46 7.048C148.812 7.048 148.972 7.336 148.972 7.656C148.972 8.84 146.876 9.512 146.316 9.464C146.444 8.888 147.436 7.048 148.46 7.048ZM156.486 6.344C156.422 6.344 156.374 6.392 156.326 6.456L156.022 6.888C155.862 6.632 155.558 6.344 154.886 6.344C152.934 6.344 150.31 9.8 150.31 12.136C150.31 12.856 150.806 13.16 151.174 13.16C152.31 13.16 153.926 11.448 154.598 10.424L154.678 10.456C154.07 12.152 153.91 12.648 153.91 12.888C153.91 13.096 154.054 13.16 154.246 13.16C155.158 13.16 156.55 11.8 156.726 11.48C156.758 11.432 156.742 11.4 156.694 11.352L156.55 11.192C156.518 11.144 156.47 11.176 156.422 11.224C156.31 11.368 155.494 12.2 155.302 12.2C155.206 12.2 155.126 12.152 155.126 12.008C155.126 11.864 155.798 9.88 155.894 9.608C155.974 9.352 156.79 7.144 157.094 6.488C157.126 6.424 157.11 6.344 157.046 6.344H156.486ZM151.91 12.312C151.638 12.312 151.478 12.12 151.478 11.752C151.478 10.232 153.19 6.856 154.662 6.856C155.254 6.856 155.414 7.368 155.414 7.8C155.414 8.264 155.254 8.664 155.03 9.128C154.742 9.72 152.71 12.312 151.91 12.312ZM158.759 13C158.887 13 158.935 13 158.967 12.888L159.495 11.272C159.735 10.552 159.927 10.184 160.119 9.88C160.759 8.824 161.655 7.448 162.087 7.448C162.295 7.448 162.375 7.512 162.503 7.64C162.631 7.768 162.759 7.8 162.903 7.8C163.207 7.8 163.527 7.48 163.527 7.064C163.527 6.632 163.239 6.344 162.775 6.344C161.879 6.344 160.599 8.312 160.167 9.208L160.087 9.176C160.407 8.104 160.679 7.208 160.663 6.904C160.663 6.616 160.535 6.344 160.215 6.344C159.127 6.344 158.167 7.432 157.831 7.928C157.799 7.976 157.799 8.024 157.831 8.056L157.991 8.216C158.023 8.248 158.087 8.264 158.119 8.216C158.343 7.944 159.063 7.224 159.383 7.224C159.527 7.224 159.655 7.32 159.655 7.464C159.655 7.688 159.159 9.368 158.871 10.264L157.975 12.856C157.943 12.936 158.007 13 158.119 13H158.759ZM164.716 13.16C165.74 13.16 166.796 12.12 167.02 11.784C167.084 11.688 167.052 11.64 167.004 11.608L166.828 11.448C166.78 11.416 166.732 11.448 166.684 11.512C166.508 11.736 165.9 12.376 165.276 12.376C164.988 12.376 164.636 12.216 164.636 11.048C164.636 10.552 164.892 9.176 165.324 8.248C165.676 7.528 166.092 7.144 166.492 7.144C166.748 7.144 166.94 7.384 166.988 7.56C167.052 7.8 167.196 7.912 167.404 7.912C167.692 7.912 168.06 7.624 168.06 7.24C168.06 6.952 167.9 6.344 167.148 6.344C165.292 6.344 163.516 9.512 163.516 11.688C163.516 12.76 164.156 13.16 164.716 13.16ZM168.684 13C168.796 13 168.876 12.984 168.908 12.888L169.58 11.256C169.9 10.488 170.252 9.88 170.636 9.4C171.068 8.856 172.476 7.192 173.324 7.192C173.772 7.192 173.804 7.688 173.804 8.088C173.804 8.856 173.516 10.072 173.164 10.984C172.86 11.8 172.332 12.84 171.98 12.84C171.804 12.84 171.724 12.664 171.708 12.52C171.676 12.296 171.468 12.04 171.148 12.04C170.812 12.04 170.572 12.456 170.572 12.824C170.572 13.176 170.924 13.512 171.388 13.512C172.284 13.512 173.148 12.6 173.788 11.4C174.348 10.36 174.892 8.984 174.892 7.688C174.892 6.952 174.524 6.344 173.788 6.344C172.476 6.344 171.42 7.688 170.62 8.824L170.54 8.76L173.052 2.872C173.148 2.632 173.196 2.456 173.196 2.392C173.196 2.248 173.132 2.2 173.004 2.2H170.844C170.716 2.2 170.7 2.248 170.668 2.328L170.588 2.6C170.556 2.696 170.636 2.744 170.732 2.744H171.228C171.532 2.744 171.756 2.872 171.756 3.064C171.756 3.192 171.74 3.368 171.548 3.848L167.884 12.92C167.868 12.952 167.9 13 167.996 13H168.684Z" fill="#2F3542"/>
<g clip-path="url(#clip0)">
<path d="M4.236 7.98869C3.76 7.90135 3.236 7.83269 2.606 7.77202C2.47401 7.7592 2.35252 7.69447 2.26825 7.59208C2.18399 7.48968 2.14385 7.35801 2.15667 7.22602C2.16949 7.09403 2.23421 6.97254 2.33661 6.88827C2.439 6.80401 2.57068 6.76387 2.70267 6.77669C3.57495 6.84879 4.44012 6.99012 5.29 7.19935C5.34275 7.21301 5.39805 7.21353 5.45105 7.20086C5.50404 7.18819 5.55313 7.16272 5.594 7.12669C6.13592 6.64924 6.76407 6.27973 7.44467 6.03802C7.50968 6.01498 7.56594 5.97235 7.6057 5.91599C7.64547 5.85963 7.66677 5.79233 7.66667 5.72335V3.67735C7.66665 3.62123 7.65247 3.56602 7.62543 3.51684C7.5984 3.46766 7.55938 3.4261 7.512 3.39602C6.15667 2.53269 3.61133 2.07269 1.19267 1.99935C1.03814 1.99345 0.884056 2.01954 0.740083 2.07598C0.596109 2.13243 0.465349 2.218 0.356 2.32735C0.243619 2.43667 0.154231 2.56736 0.0930944 2.71173C0.0319576 2.8561 0.000305615 3.01124 2.34504e-08 3.16802V11.7234C-6.11353e-05 12.0284 0.119507 12.3213 0.333028 12.5392C0.546549 12.7571 0.836996 12.8826 1.142 12.8887C1.91235 12.9091 2.68103 12.9712 3.44467 13.0747C3.49855 13.0823 3.55349 13.0766 3.60468 13.0581C3.65586 13.0396 3.70174 13.0089 3.73831 12.9686C3.77487 12.9283 3.80101 12.8796 3.81444 12.8269C3.82786 12.7741 3.82817 12.7189 3.81533 12.666C3.71644 12.2443 3.66656 11.8125 3.66667 11.3794C3.6667 11.1465 3.68095 10.9138 3.70933 10.6827C3.7201 10.5953 3.69586 10.5072 3.6419 10.4376C3.58794 10.3681 3.50865 10.3227 3.42133 10.3114C3.16867 10.2787 2.89867 10.2487 2.606 10.22C2.47401 10.2072 2.35252 10.1425 2.26825 10.0401C2.18399 9.93768 2.14385 9.80601 2.15667 9.67402C2.16949 9.54203 2.23421 9.42054 2.33661 9.33627C2.439 9.25201 2.57068 9.21187 2.70267 9.22469C3.08933 9.26202 3.442 9.30335 3.76933 9.35002C3.84193 9.36009 3.91582 9.34595 3.97957 9.3098C4.04332 9.27365 4.09338 9.21749 4.122 9.15002C4.22018 8.92063 4.33331 8.69793 4.46067 8.48335C4.48823 8.43716 4.50421 8.38498 4.50724 8.33128C4.51026 8.27757 4.50024 8.22393 4.47804 8.17493C4.45583 8.12594 4.4221 8.08304 4.37972 8.04992C4.33734 8.01679 4.28757 7.99441 4.23467 7.98469L4.236 7.98869ZM2.70267 4.32802C3.87816 4.41401 5.03887 4.64234 6.15933 5.00802C6.28505 5.05028 6.38882 5.14074 6.44783 5.25952C6.50685 5.37829 6.51626 5.51564 6.474 5.64135C6.43174 5.76707 6.34128 5.87084 6.2225 5.92985C6.10373 5.98886 5.96638 5.99828 5.84067 5.95602C4.79235 5.61373 3.70603 5.40126 2.606 5.32335C2.47401 5.31053 2.35252 5.24581 2.26825 5.14341C2.18399 5.04102 2.14385 4.90934 2.15667 4.77735C2.16949 4.64536 2.23421 4.52387 2.33661 4.43961C2.439 4.35534 2.57068 4.3152 2.70267 4.32802Z" fill="#F4D54B"/>
<path d="M15.6439 2.32799C15.5337 2.21983 15.4028 2.13502 15.259 2.07866C15.1153 2.0223 14.9616 1.99554 14.8073 1.99999C12.3886 2.07332 9.84326 2.53332 8.48793 3.39999C8.44055 3.43007 8.40153 3.47163 8.37449 3.52081C8.34745 3.56999 8.33327 3.6252 8.33326 3.68132V5.41665C8.33297 5.46369 8.34265 5.51026 8.36164 5.55329C8.38064 5.59632 8.40853 5.63485 8.44347 5.66633C8.47842 5.69782 8.51964 5.72155 8.56441 5.73597C8.60919 5.75038 8.65651 5.75516 8.70326 5.74999C8.91244 5.72633 9.12275 5.71409 9.33326 5.71332C9.44326 5.71332 9.55259 5.71332 9.66126 5.72265C9.68542 5.72407 9.70959 5.72015 9.73206 5.71116C9.75453 5.70217 9.77474 5.68834 9.79126 5.67065C9.8082 5.65319 9.82101 5.63214 9.82874 5.60906C9.83647 5.58599 9.83893 5.56147 9.83592 5.53732C9.82346 5.42368 9.85026 5.3092 9.91187 5.2129C9.97348 5.11661 10.0662 5.0443 10.1746 5.00799C11.2926 4.61282 12.4521 4.34665 13.6306 4.21465C13.6959 4.20831 13.7619 4.21489 13.8247 4.23404C13.8875 4.25319 13.946 4.28452 13.9967 4.32624C14.0474 4.36796 14.0893 4.41927 14.1202 4.47722C14.1511 4.53517 14.1702 4.59863 14.1766 4.66399C14.1829 4.72934 14.1764 4.79531 14.1572 4.85811C14.1381 4.92092 14.1067 4.97935 14.065 5.03005C14.0233 5.08075 13.972 5.12273 13.914 5.15361C13.8561 5.18448 13.7926 5.20364 13.7273 5.20999C12.881 5.29974 12.0454 5.47075 11.2319 5.72065C11.1983 5.73074 11.1687 5.75121 11.1474 5.77912C11.126 5.80703 11.1141 5.84097 11.1132 5.87609C11.1123 5.9112 11.1225 5.9457 11.1424 5.97466C11.1623 6.00361 11.1908 6.02555 11.2239 6.03732C11.6953 6.20507 12.1423 6.43462 12.5533 6.71999C12.6246 6.76935 12.7124 6.78896 12.7979 6.77465C13.0659 6.72932 13.3435 6.69332 13.6306 6.66665C13.7623 6.65508 13.8933 6.69568 13.9954 6.77971C14.0976 6.86374 14.1626 6.98449 14.1766 7.11599C14.1915 7.22438 14.1672 7.33452 14.1082 7.42665C14.0492 7.51877 13.9593 7.58685 13.8546 7.61865C13.8301 7.62797 13.8082 7.64293 13.7905 7.66231C13.7729 7.6817 13.7601 7.70497 13.7532 7.73023C13.7462 7.75549 13.7453 7.78203 13.7505 7.80771C13.7558 7.83338 13.767 7.85746 13.7833 7.87799C14.3091 8.54455 14.6783 9.32086 14.8635 10.1494C15.0488 10.978 15.0452 11.8376 14.8533 12.6647C14.8472 12.6918 14.8479 12.72 14.8555 12.7467C14.8631 12.7734 14.8772 12.7978 14.8966 12.8177C14.916 12.8376 14.9401 12.8523 14.9666 12.8605C14.9932 12.8687 15.0214 12.8701 15.0486 12.8647C15.3166 12.8181 15.5594 12.6778 15.7336 12.4689C15.9078 12.26 16.0022 11.996 15.9999 11.724V3.16865C15.9996 3.01187 15.968 2.85674 15.9068 2.71237C15.8457 2.568 15.7563 2.43731 15.6439 2.32799Z" fill="#F4D54B"/>
<path d="M13.2666 14.3262C13.2122 14.2719 13.1783 14.2005 13.1705 14.1241C13.1628 14.0477 13.1816 13.9709 13.2239 13.9068C13.8616 12.942 14.1183 11.7749 13.9443 10.6315C13.7703 9.48825 13.178 8.45027 12.2822 7.71886C11.3864 6.98745 10.2509 6.61471 9.0959 6.67291C7.9409 6.7311 6.84865 7.21609 6.0309 8.03383C5.21316 8.85158 4.72817 9.94383 4.66998 11.0988C4.61178 12.2538 4.98452 13.3893 5.71593 14.2851C6.44734 15.1809 7.48532 15.7732 8.62862 15.9472C9.77192 16.1212 10.9391 15.8645 11.9039 15.2268C11.9679 15.1844 12.0446 15.1655 12.121 15.1731C12.1974 15.1808 12.2689 15.2146 12.3232 15.2688L14.8606 17.8061C14.9225 17.868 14.996 17.9171 15.0769 17.9506C15.1578 17.9841 15.2446 18.0013 15.3321 18.0013C15.4197 18.0013 15.5064 17.984 15.5873 17.9504C15.6682 17.9169 15.7417 17.8678 15.8036 17.8058C15.8655 17.7439 15.9145 17.6704 15.948 17.5894C15.9815 17.5085 15.9987 17.4218 15.9987 17.3342C15.9987 17.2467 15.9814 17.16 15.9478 17.0791C15.9143 16.9982 15.8652 16.9247 15.8032 16.8628L13.2666 14.3262ZM9.33322 14.6668C8.67395 14.6668 8.02948 14.4713 7.48132 14.105C6.93316 13.7388 6.50591 13.2182 6.25362 12.6091C6.00133 12 5.93532 11.3298 6.06394 10.6832C6.19255 10.0366 6.51002 9.44264 6.9762 8.97646C7.44237 8.51029 8.03632 8.19282 8.68292 8.0642C9.32952 7.93558 9.99975 8.00159 10.6088 8.25389C11.2179 8.50618 11.7385 8.93342 12.1048 9.48158C12.4711 10.0297 12.6666 10.6742 12.6666 11.3335C12.6655 12.2172 12.314 13.0644 11.6891 13.6893C11.0642 14.3142 10.217 14.6658 9.33322 14.6668Z" fill="#F4D54B"/>
</g>
<defs>
<clipPath id="clip0">
<rect y="2" width="16" height="16" fill="white"/>
</clipPath>
</defs>
</svg>
