<svg width="48" height="48" viewBox="0 0 48 48" fill="none" xmlns="http://www.w3.org/2000/svg">
<path d="M47 35C47 35.5304 46.7893 36.0391 46.4142 36.4142C46.0391 36.7893 45.5304 37 45 37H23L15 45V37H3C2.46957 37 1.96086 36.7893 1.58579 36.4142C1.21071 36.0391 1 35.5304 1 35V5C1 4.46957 1.21071 3.96086 1.58579 3.58579C1.96086 3.21071 2.46957 3 3 3H45C45.5304 3 46.0391 3.21071 46.4142 3.58579C46.7893 3.96086 47 4.46957 47 5V35Z" stroke="#367560" stroke-width="2" stroke-linecap="round" stroke-linejoin="round"/>
<path d="M15 17H17V31H15" stroke="#367560" stroke-width="2" stroke-linecap="round" stroke-linejoin="round"/>
<path d="M17 18V28L22.868 30.514C23.6149 30.8344 24.4192 30.9998 25.232 31H31.558C31.9779 31.0001 32.3872 30.868 32.7279 30.6225C33.0686 30.3769 33.3233 30.0304 33.456 29.632L36.122 21.632C36.2221 21.3315 36.2494 21.0115 36.2016 20.6984C36.1538 20.3853 36.0324 20.088 35.8473 19.831C35.6621 19.574 35.4186 19.3647 35.1367 19.2202C34.8549 19.0757 34.5427 19.0002 34.226 19H29V11C29 10.4696 28.7893 9.96086 28.4142 9.58579C28.0391 9.21071 27.5304 9 27 9C26.4696 9 25.9609 9.21071 25.5858 9.58579C25.2107 9.96086 25 10.4696 25 11C25 12.8565 24.2625 14.637 22.9497 15.9497C21.637 17.2625 19.8565 18 18 18H17Z" stroke="#367560" stroke-width="2" stroke-linecap="round" stroke-linejoin="round"/>
</svg>
