<svg width="48" height="48" viewBox="0 0 48 48" fill="none" xmlns="http://www.w3.org/2000/svg">
<path d="M32.884 16.16C30.939 16.0294 29.0064 16.5551 27.3957 17.6531C25.785 18.7511 24.5893 20.3578 24 22.216C23.4107 20.3578 22.2149 18.7511 20.6042 17.6531C18.9935 16.5551 17.0609 16.0294 15.116 16.16" stroke="#367560" stroke-width="2" stroke-linecap="round" stroke-linejoin="round"/>
<path d="M7.8 5L2.972 11.034C1.69504 12.6303 0.999553 14.6138 1 16.658V27C1 27.7956 1.31607 28.5587 1.87868 29.1213C2.44129 29.6839 3.20435 30 4 30C4.79565 30 5.55871 29.6839 6.12132 29.1213C6.68393 28.5587 7 27.7956 7 27V19.25" stroke="#367560" stroke-width="2" stroke-linecap="round" stroke-linejoin="round"/>
<path d="M15.9999 5V12.272C16.0016 14.0518 15.4746 15.792 14.4859 17.272L12.1999 20.692C12.0051 21.017 11.7462 21.299 11.4392 21.521C11.1321 21.743 10.7832 21.9004 10.4135 21.9836C10.0438 22.0668 9.66111 22.0741 9.28853 22.0051C8.91595 21.9361 8.56126 21.7921 8.24594 21.582C7.6783 21.2033 7.2685 20.6302 7.09357 19.9706C6.91864 19.3111 6.9906 18.6103 7.29594 18L9.99994 13.5" stroke="#367560" stroke-width="2" stroke-linecap="round" stroke-linejoin="round"/>
<path d="M16 1H6C5.44772 1 5 1.44772 5 2V4C5 4.55228 5.44772 5 6 5H16C16.5523 5 17 4.55228 17 4V2C17 1.44772 16.5523 1 16 1Z" stroke="#367560" stroke-width="2" stroke-linecap="round" stroke-linejoin="round"/>
<path d="M40.2 5L45.028 11.034C46.3049 12.6303 47.0004 14.6138 47 16.658V27C47 27.7956 46.6839 28.5587 46.1213 29.1213C45.5587 29.6839 44.7956 30 44 30C43.2043 30 42.4412 29.6839 41.8786 29.1213C41.316 28.5587 41 27.7956 41 27V19.25" stroke="#367560" stroke-width="2" stroke-linecap="round" stroke-linejoin="round"/>
<path d="M32 5V12.272C31.9984 14.0518 32.5253 15.792 33.514 17.272L35.8 20.692C35.9949 21.017 36.2537 21.299 36.5608 21.521C36.8678 21.743 37.2168 21.9004 37.5864 21.9836C37.9561 22.0668 38.3388 22.0741 38.7114 22.0051C39.084 21.9361 39.4387 21.7921 39.754 21.582C40.3216 21.2033 40.7314 20.6302 40.9064 19.9706C41.0813 19.3111 41.0093 18.6103 40.704 18L38 13.5" stroke="#367560" stroke-width="2" stroke-linecap="round" stroke-linejoin="round"/>
<path d="M32 5L42 5C42.5523 5 43 4.55228 43 4V2C43 1.44772 42.5523 1 42 1L32 1C31.4477 1 31 1.44772 31 2V4C31 4.55228 31.4477 5 32 5Z" stroke="#367560" stroke-width="2" stroke-linecap="round" stroke-linejoin="round"/>
<path d="M39.094 32.25C35.272 38.87 26.846 45.182 24.574 46.812C24.4076 46.9342 24.2065 47.0001 24 47.0001C23.7935 47.0001 23.5924 46.9342 23.426 46.812C21.154 45.182 12.728 38.87 8.90601 32.25" stroke="#367560" stroke-width="2" stroke-linecap="round" stroke-linejoin="round"/>
</svg>
