<svg width="16" height="16" viewBox="0 0 16 16" fill="none" xmlns="http://www.w3.org/2000/svg">
<g clip-path="url(#clip0)">
<path d="M4.236 5.98869C3.76 5.90135 3.236 5.83269 2.606 5.77202C2.47401 5.7592 2.35252 5.69447 2.26825 5.59208C2.18399 5.48968 2.14385 5.35801 2.15667 5.22602C2.16949 5.09403 2.23421 4.97254 2.33661 4.88827C2.439 4.80401 2.57068 4.76387 2.70267 4.77669C3.57495 4.84879 4.44012 4.99012 5.29 5.19935C5.34275 5.21301 5.39805 5.21353 5.45105 5.20086C5.50404 5.18819 5.55313 5.16272 5.594 5.12669C6.13592 4.64924 6.76407 4.27973 7.44467 4.03802C7.50968 4.01498 7.56594 3.97235 7.6057 3.91599C7.64547 3.85963 7.66677 3.79233 7.66667 3.72335V1.67735C7.66665 1.62123 7.65247 1.56602 7.62543 1.51684C7.5984 1.46766 7.55938 1.4261 7.512 1.39602C6.15667 0.532686 3.61133 0.0726857 1.19267 -0.00064767C1.03814 -0.00654671 0.884056 0.0195427 0.740083 0.0759849C0.596109 0.132427 0.465349 0.218005 0.356 0.327352C0.243619 0.436672 0.154231 0.56736 0.0930944 0.71173C0.0319576 0.8561 0.000305615 1.01124 2.34504e-08 1.16802V9.72335C-6.11353e-05 10.0284 0.119507 10.3213 0.333028 10.5392C0.546549 10.7571 0.836996 10.8826 1.142 10.8887C1.91235 10.9091 2.68103 10.9712 3.44467 11.0747C3.49855 11.0823 3.55349 11.0766 3.60468 11.0581C3.65586 11.0396 3.70174 11.0089 3.73831 10.9686C3.77487 10.9283 3.80101 10.8796 3.81444 10.8269C3.82786 10.7741 3.82817 10.7189 3.81533 10.666C3.71644 10.2443 3.66656 9.81253 3.66667 9.37935C3.6667 9.14648 3.68095 8.91382 3.70933 8.68269C3.7201 8.5953 3.69586 8.50721 3.6419 8.43764C3.58794 8.36806 3.50865 8.32267 3.42133 8.31135C3.16867 8.27869 2.89867 8.24869 2.606 8.22002C2.47401 8.2072 2.35252 8.14247 2.26825 8.04008C2.18399 7.93768 2.14385 7.80601 2.15667 7.67402C2.16949 7.54203 2.23421 7.42054 2.33661 7.33627C2.439 7.25201 2.57068 7.21187 2.70267 7.22469C3.08933 7.26202 3.442 7.30335 3.76933 7.35002C3.84193 7.36009 3.91582 7.34595 3.97957 7.3098C4.04332 7.27365 4.09338 7.21749 4.122 7.15002C4.22018 6.92063 4.33331 6.69793 4.46067 6.48335C4.48823 6.43716 4.50421 6.38498 4.50724 6.33128C4.51026 6.27757 4.50024 6.22393 4.47804 6.17493C4.45583 6.12594 4.4221 6.08304 4.37972 6.04992C4.33734 6.01679 4.28757 5.99441 4.23467 5.98469L4.236 5.98869ZM2.70267 2.32802C3.87816 2.41401 5.03887 2.64234 6.15933 3.00802C6.28505 3.05028 6.38882 3.14074 6.44783 3.25952C6.50685 3.37829 6.51626 3.51564 6.474 3.64135C6.43174 3.76707 6.34128 3.87084 6.2225 3.92985C6.10373 3.98886 5.96638 3.99828 5.84067 3.95602C4.79235 3.61373 3.70603 3.40126 2.606 3.32335C2.47401 3.31053 2.35252 3.24581 2.26825 3.14341C2.18399 3.04102 2.14385 2.90934 2.15667 2.77735C2.16949 2.64536 2.23421 2.52387 2.33661 2.43961C2.439 2.35534 2.57068 2.3152 2.70267 2.32802Z" fill="#F4D54B"/>
<path d="M15.6439 0.327987C15.5337 0.219825 15.4028 0.135024 15.259 0.0786631C15.1153 0.0223025 14.9616 -0.0044573 14.8073 -1.29502e-05C12.3886 0.0733204 9.84326 0.53332 8.48793 1.39999C8.44055 1.43007 8.40153 1.47163 8.37449 1.52081C8.34745 1.56999 8.33327 1.6252 8.33326 1.68132V3.41665C8.33297 3.46369 8.34265 3.51026 8.36164 3.55329C8.38064 3.59632 8.40853 3.63485 8.44347 3.66633C8.47842 3.69782 8.51964 3.72155 8.56441 3.73597C8.60919 3.75038 8.65651 3.75516 8.70326 3.74999C8.91244 3.72633 9.12275 3.71409 9.33326 3.71332C9.44326 3.71332 9.55259 3.71332 9.66126 3.72265C9.68542 3.72407 9.70959 3.72015 9.73206 3.71116C9.75453 3.70217 9.77474 3.68834 9.79126 3.67065C9.8082 3.65319 9.82101 3.63214 9.82874 3.60906C9.83647 3.58599 9.83893 3.56147 9.83592 3.53732C9.82346 3.42368 9.85026 3.3092 9.91187 3.2129C9.97348 3.11661 10.0662 3.0443 10.1746 3.00799C11.2926 2.61282 12.4521 2.34665 13.6306 2.21465C13.6959 2.20831 13.7619 2.21489 13.8247 2.23404C13.8875 2.25319 13.946 2.28452 13.9967 2.32624C14.0474 2.36796 14.0893 2.41927 14.1202 2.47722C14.1511 2.53517 14.1702 2.59863 14.1766 2.66399C14.1829 2.72934 14.1764 2.79531 14.1572 2.85811C14.1381 2.92092 14.1067 2.97935 14.065 3.03005C14.0233 3.08075 13.972 3.12273 13.914 3.15361C13.8561 3.18448 13.7926 3.20364 13.7273 3.20999C12.881 3.29974 12.0454 3.47075 11.2319 3.72065C11.1983 3.73074 11.1687 3.75121 11.1474 3.77912C11.126 3.80703 11.1141 3.84097 11.1132 3.87609C11.1123 3.9112 11.1225 3.9457 11.1424 3.97466C11.1623 4.00361 11.1908 4.02555 11.2239 4.03732C11.6953 4.20507 12.1423 4.43462 12.5533 4.71999C12.6246 4.76935 12.7124 4.78896 12.7979 4.77465C13.0659 4.72932 13.3435 4.69332 13.6306 4.66665C13.7623 4.65508 13.8933 4.69568 13.9954 4.77971C14.0976 4.86374 14.1626 4.98449 14.1766 5.11599C14.1915 5.22438 14.1672 5.33452 14.1082 5.42665C14.0492 5.51877 13.9593 5.58685 13.8546 5.61865C13.8301 5.62797 13.8082 5.64293 13.7905 5.66231C13.7729 5.6817 13.7601 5.70497 13.7532 5.73023C13.7462 5.75549 13.7453 5.78203 13.7505 5.80771C13.7558 5.83338 13.767 5.85746 13.7833 5.87799C14.3091 6.54455 14.6783 7.32086 14.8635 8.14943C15.0488 8.978 15.0452 9.83762 14.8533 10.6647C14.8472 10.6918 14.8479 10.72 14.8555 10.7467C14.8631 10.7734 14.8772 10.7978 14.8966 10.8177C14.916 10.8376 14.9401 10.8523 14.9666 10.8605C14.9932 10.8687 15.0214 10.8701 15.0486 10.8647C15.3166 10.8181 15.5594 10.6778 15.7336 10.4689C15.9078 10.26 16.0022 9.99601 15.9999 9.72399V1.16865C15.9996 1.01187 15.968 0.856735 15.9068 0.712365C15.8457 0.567995 15.7563 0.437307 15.6439 0.327987Z" fill="#F4D54B"/>
<path d="M13.2666 12.3262C13.2122 12.2719 13.1783 12.2005 13.1705 12.1241C13.1628 12.0477 13.1816 11.9709 13.2239 11.9068C13.8616 10.942 14.1183 9.77485 13.9443 8.63155C13.7703 7.48825 13.178 6.45027 12.2822 5.71886C11.3864 4.98745 10.2509 4.61471 9.0959 4.67291C7.9409 4.7311 6.84865 5.21609 6.0309 6.03383C5.21316 6.85158 4.72817 7.94383 4.66998 9.09883C4.61178 10.2538 4.98452 11.3893 5.71593 12.2851C6.44734 13.1809 7.48532 13.7732 8.62862 13.9472C9.77192 14.1212 10.9391 13.8645 11.9039 13.2268C11.9679 13.1844 12.0446 13.1655 12.121 13.1731C12.1974 13.1808 12.2689 13.2146 12.3232 13.2688L14.8606 15.8061C14.9225 15.868 14.996 15.9171 15.0769 15.9506C15.1578 15.9841 15.2446 16.0013 15.3321 16.0013C15.4197 16.0013 15.5064 15.984 15.5873 15.9504C15.6682 15.9169 15.7417 15.8678 15.8036 15.8058C15.8655 15.7439 15.9145 15.6704 15.948 15.5894C15.9815 15.5085 15.9987 15.4218 15.9987 15.3342C15.9987 15.2467 15.9814 15.16 15.9478 15.0791C15.9143 14.9982 15.8652 14.9247 15.8032 14.8628L13.2666 12.3262ZM9.33322 12.6668C8.67395 12.6668 8.02948 12.4713 7.48132 12.105C6.93316 11.7388 6.50591 11.2182 6.25362 10.6091C6.00133 10 5.93532 9.32979 6.06394 8.68318C6.19255 8.03658 6.51002 7.44264 6.9762 6.97646C7.44237 6.51029 8.03632 6.19282 8.68292 6.0642C9.32952 5.93558 9.99975 6.00159 10.6088 6.25389C11.2179 6.50618 11.7385 6.93342 12.1048 7.48158C12.4711 8.02975 12.6666 8.67421 12.6666 9.33348C12.6655 10.2172 12.314 11.0644 11.6891 11.6893C11.0642 12.3142 10.217 12.6658 9.33322 12.6668Z" fill="#F4D54B"/>
</g>
<defs>
<clipPath id="clip0">
<rect width="16" height="16" fill="white"/>
</clipPath>
</defs>
</svg>
