<svg width="48" height="48" viewBox="0 0 48 48" fill="none" xmlns="http://www.w3.org/2000/svg">
<path d="M29.2008 44V35.7127C30.0414 35.3819 30.8152 34.9024 31.4849 34.2974L40.1925 24.1319C40.428 23.9567 40.622 23.7322 40.761 23.4742C40.9 23.2162 40.9805 22.931 40.9969 22.6386C41.0133 22.3462 40.9651 22.0538 40.8559 21.782C40.7466 21.5102 40.5789 21.2655 40.3645 21.0653C39.8898 20.6365 39.2785 20.3887 38.6383 20.3654C37.9982 20.3422 37.3704 20.5452 36.8658 20.9385L31.9203 24.7216L34.6375 8.50533C34.6938 8.21094 34.6886 7.90813 34.6222 7.61584C34.5557 7.32355 34.4295 7.04807 34.2514 6.80662C34.0732 6.56517 33.847 6.36294 33.5869 6.21259C33.3268 6.06224 33.0384 5.96699 32.7397 5.9328C32.1271 5.7925 31.4839 5.88664 30.9377 6.19658C30.3914 6.50652 29.9819 7.00964 29.7902 7.60628L26.968 18.6842V5.45212C26.9187 4.7605 26.5983 4.116 26.076 3.65794C25.5538 3.19988 24.8717 2.96505 24.1771 3.00422C23.4826 2.96505 22.8005 3.19988 22.2782 3.65794C21.756 4.116 21.4355 4.7605 21.3862 5.45212V18.6842L19.2718 8.15818C19.0829 7.56218 18.6747 7.05951 18.1293 6.75115C17.5838 6.44278 16.9415 6.35157 16.3313 6.49582C16.0319 6.53215 15.7431 6.62917 15.4827 6.7809C15.2224 6.93263 14.9959 7.13587 14.8173 7.3781C14.6387 7.62033 14.5117 7.89644 14.4441 8.18942C14.3766 8.4824 14.3699 8.78606 14.4245 9.0817L17.0614 21.8531L12.5825 15.651C12.1919 15.149 11.6346 14.8021 11.0105 14.6728C10.3864 14.5436 9.73658 14.6402 9.17761 14.9456C8.9094 15.0703 8.67163 15.2518 8.48079 15.4773C8.28995 15.7028 8.15062 15.967 8.07245 16.2515C7.99428 16.5361 7.97915 16.8341 8.02811 17.1251C8.07707 17.416 8.18894 17.6929 8.35597 17.9365L11.877 23.758C12.556 24.8689 12.9152 26.1446 12.9152 27.4455C12.904 31.618 14.0561 35.1363 18.0393 36.0755V44" stroke="#367560" stroke-width="2" stroke-linecap="round" stroke-linejoin="round"/>
</svg>
