<svg width="48" height="48" viewBox="0 0 48 48" fill="none" xmlns="http://www.w3.org/2000/svg">
<path d="M18.2174 35.8993C14.5032 34.4431 10.584 33.6411 6.61913 33.526C6.18765 33.5139 5.77755 33.3268 5.47544 33.0043C5.17333 32.6818 5.00285 32.249 5 31.7975V6.72877C4.99997 6.49928 5.04362 6.27209 5.1284 6.06043C5.21318 5.84878 5.33739 5.65691 5.4938 5.49601C5.6502 5.33512 5.83567 5.20841 6.03937 5.12329C6.24308 5.03818 6.46094 4.99635 6.68026 5.00025C15.6317 5.29064 23.1739 7.87478 23.1739 11.0224C23.1739 7.87478 30.7161 5.29064 39.6676 5.00025C39.8869 4.99635 40.1048 5.03818 40.3085 5.12329C40.5122 5.20841 40.6976 5.33512 40.854 5.49601C41.0104 5.65691 41.1347 5.84878 41.2194 6.06043C41.3042 6.27209 41.3479 6.49928 41.3478 6.72877V33.4932" stroke="#367560" stroke-width="2" stroke-linecap="round" stroke-linejoin="round"/>
<path d="M23.1738 11.0225V11.8868" stroke="#367560" stroke-width="2" stroke-linecap="round" stroke-linejoin="round"/>
<path d="M19.0438 14.8944C15.5792 13.6515 11.9634 12.9298 8.30469 12.751" stroke="#367560" stroke-width="2" stroke-linecap="round" stroke-linejoin="round"/>
<path d="M15.7758 19.0515C13.318 18.4709 10.8196 18.0981 8.30469 17.9366" stroke="#367560" stroke-width="2" stroke-linecap="round" stroke-linejoin="round"/>
<path d="M13.9799 23.8464C12.1029 23.4922 10.2081 23.2504 8.30469 23.1221" stroke="#367560" stroke-width="2" stroke-linecap="round" stroke-linejoin="round"/>
<path d="M14.2327 29.0804C12.2731 28.7001 10.2936 28.442 8.30469 28.3077" stroke="#367560" stroke-width="2" stroke-linecap="round" stroke-linejoin="round"/>
<path d="M31.5024 13.6516C33.6609 13.1976 35.8462 12.8967 38.0434 12.751" stroke="#367560" stroke-width="2" stroke-linecap="round" stroke-linejoin="round"/>
<path d="M36.2627 18.0922C36.8443 18.0299 37.439 17.9781 38.0437 17.9366" stroke="#367560" stroke-width="2" stroke-linecap="round" stroke-linejoin="round"/>
<path d="M26.4785 36.086C31.9533 36.086 36.3915 31.4427 36.3915 25.7149C36.3915 19.9871 31.9533 15.3438 26.4785 15.3438C21.0037 15.3438 16.5654 19.9871 16.5654 25.7149C16.5654 31.4427 21.0037 36.086 26.4785 36.086Z" stroke="#367560" stroke-width="2" stroke-linecap="round" stroke-linejoin="round"/>
<path d="M33.5264 33.087L42.9999 43" stroke="#367560" stroke-width="2" stroke-linecap="round" stroke-linejoin="round"/>
</svg>
