<svg width="35" height="40" viewBox="0 0 35 40" fill="none" xmlns="http://www.w3.org/2000/svg">
<path d="M21.1761 3.95613L20.1813 3.85429C20.1483 4.17708 20.2739 4.49584 20.5183 4.70929C20.7627 4.92275 21.0954 5.00435 21.4109 4.92819L21.1761 3.95613ZM23.6528 3.9457L23.3958 4.91213C23.7475 5.00562 24.1222 4.90071 24.3742 4.63822C24.6261 4.37573 24.7157 3.99708 24.6079 3.64954L23.6528 3.9457ZM21.2514 3.17667L20.2557 3.08352V3.08352L21.2514 3.17667ZM21.4444 1.41875L20.4545 1.27719L20.4544 1.27731L21.4444 1.41875ZM22.1291 1.20122L21.4639 1.9479L21.4643 1.94825L22.1291 1.20122ZM19.3163 11.0482L20.3151 11.0973C20.3155 11.0886 20.3158 11.0799 20.316 11.0712L19.3163 11.0482ZM20.5094 6.28488L21.3655 6.80173L21.3661 6.80065L20.5094 6.28488ZM19.7239 13.681L18.7678 13.9742L18.7684 13.9761L19.7239 13.681ZM20.8932 15.6194L21.5222 14.8419L21.522 14.8418L20.8932 15.6194ZM24.5037 15.676L25.0292 16.5268L25.0293 16.5268L24.5037 15.676ZM26.7654 10.5163L27.7468 10.3241L27.7466 10.3234L26.7654 10.5163ZM23.2691 5.41624L22.7407 6.26527L22.7411 6.26552L23.2691 5.41624ZM21.8196 5.14954L22.0876 6.11297L22.0891 6.11254L21.8196 5.14954ZM14.7648 14.186L13.8303 13.8301L13.8302 13.8303L14.7648 14.186ZM15.3369 11.0273L16.3368 11.0423L16.3369 11.0324L15.3369 11.0273ZM10.145 15.661L10.6716 14.8109L10.6711 14.8106L10.145 15.661ZM7.9085 10.3539L8.88518 10.5686L8.88522 10.5683L7.9085 10.3539ZM11.1455 5.55922L10.579 4.73509L10.578 4.73581L11.1455 5.55922ZM12.5994 5.10031L12.6749 4.10316L12.6716 4.10292L12.5994 5.10031ZM13.9956 6.04196L13.1786 6.61857L13.1788 6.61892L13.9956 6.04196ZM15.1872 9.28557L16.1735 9.12078L16.1734 9.11996L15.1872 9.28557ZM2.59921 16.8755L1.84048 16.2241L1.8402 16.2244L2.59921 16.8755ZM1 21.5867L0.000636399 21.551C-0.000234485 21.5754 -0.000211477 21.5998 0.000705242 21.6242L1 21.5867ZM4.58081 15.6984L4.66502 16.6949L4.66596 16.6948L4.58081 15.6984ZM6.33268 16.272L6.90904 15.4548L6.90802 15.4541L6.33268 16.272ZM9.18429 19.5544L8.33915 20.0889L8.33916 20.0889L9.18429 19.5544ZM10.1121 21.2023L9.22775 21.6691L9.22864 21.6708L10.1121 21.2023ZM10.0721 23.7843L10.9452 24.2719L10.9456 24.2711L10.0721 23.7843ZM8.65787 25.4589L9.35523 26.1756L9.35526 26.1756L8.65787 25.4589ZM8.65776 25.459L7.96034 24.7422L7.95066 24.7519L8.65776 25.459ZM8.65771 25.459L9.34308 26.1872C9.35043 26.1803 9.35768 26.1733 9.36482 26.1662L8.65771 25.459ZM8.65769 25.4591L7.97232 24.7309C7.96828 24.7347 7.96428 24.7385 7.9603 24.7424L8.65769 25.4591ZM8.19127 25.9209L8.90715 26.6192L8.90723 26.6191L8.19127 25.9209ZM6.98185 26.9564L7.57452 27.7619L7.57536 27.7613L6.98185 26.9564ZM4.10801 27.0131L3.51581 27.8189L3.51597 27.819L4.10801 27.0131ZM19.5504 38.3953L19.3209 39.3686C19.3376 39.3726 19.3545 39.3761 19.3715 39.3792L19.5504 38.3953ZM19.5505 38.3954L19.7804 37.4222C19.7635 37.4182 19.7465 37.4146 19.7293 37.4115L19.5505 38.3954ZM19.3517 38.3485L19.5813 37.3752L19.579 37.3747L19.3517 38.3485ZM14.8861 38.4439L14.6291 37.4774L14.6283 37.4777L14.8861 38.4439ZM10.7569 38.5631L11.0067 37.5948L11.0064 37.5947L10.7569 38.5631ZM7.26204 35.3016L6.31784 35.6309L6.31814 35.6318L7.26204 35.3016ZM7.03824 32.3187L7.99545 32.6081L7.99553 32.6078L7.03824 32.3187ZM9.15768 29.7917L8.60489 28.9584L8.60394 28.9591L9.15768 29.7917ZM11.8477 27.7103L12.5638 28.4084L12.564 28.4081L11.8477 27.7103ZM13.6441 25.0046L12.7523 24.5521L12.752 24.5527L13.6441 25.0046ZM15.9888 22.5789L16.368 23.5042L16.3682 23.5042L15.9888 22.5789ZM20.284 23.8633L19.486 24.4659L19.4861 24.4661L20.284 23.8633ZM21.194 25.3472L20.2883 25.7711L20.2884 25.7713L21.194 25.3472ZM24.7467 29.2881L25.2958 28.4524L25.2947 28.4517L24.7467 29.2881ZM26.0924 30.2074L25.5138 31.0231L25.5144 31.0234L26.0924 30.2074ZM27.6501 34.4299L28.6234 34.6595L28.6236 34.6588L27.6501 34.4299ZM25.3721 37.9432L25.8958 38.7951L25.8964 38.7948L25.3721 37.9432ZM22.0848 38.7895L22.0886 37.7895H22.0848V38.7895ZM33.6365 21.5182L34.636 21.5503C34.6366 21.5317 34.6367 21.5132 34.6362 21.4946L33.6365 21.5182ZM30.6441 26.9609L31.2478 27.7582L31.2481 27.7579L30.6441 26.9609ZM32.058 16.8636L31.2951 17.5101L31.2962 17.5113L32.058 16.8636ZM30.1076 15.7014L30.0194 16.6975L30.0201 16.6976L30.1076 15.7014ZM28.0785 16.4568L27.4547 15.6752L27.4545 15.6754L28.0785 16.4568ZM24.6741 20.9073L25.5484 21.3927L25.5486 21.3924L24.6741 20.9073ZM25.095 24.5025L24.3461 25.1652L24.3467 25.1659L25.095 24.5025ZM27.6754 26.9505L28.2839 26.1569L28.2834 26.1566L27.6754 26.9505ZM3.44081 14.5791L3.22387 13.6028L3.21202 13.6056L3.44081 14.5791ZM3.4409 14.579L3.65785 15.5553L3.6708 15.5523L3.4409 14.579ZM1.21474 15.764L0.22495 15.9065C0.277575 16.272 0.527265 16.5787 0.874424 16.7043C1.22158 16.8299 1.60973 16.7541 1.88404 16.507L1.21474 15.764ZM1.31997 12.4965L2.26382 12.8269L2.26397 12.8265L1.31997 12.4965ZM2.22851 12.3252L2.98533 11.6716L2.98323 11.6692L2.22851 12.3252ZM2.91712 13.3048L2.07133 13.8383L2.07346 13.8416L2.91712 13.3048ZM2.91716 13.3048L2.0735 13.8417C2.07834 13.8493 2.08327 13.8568 2.08831 13.8643L2.91716 13.3048ZM2.91717 13.3048L3.76296 12.7713C3.75745 12.7626 3.7518 12.7539 3.74602 12.7454L2.91717 13.3048ZM3.08814 13.5738L3.92826 13.0314L3.92823 13.0313L3.08814 13.5738ZM3.52212 14.2205L4.34905 13.6582L4.34763 13.6561L3.52212 14.2205ZM3.52227 14.2208L2.69534 14.7831L2.69677 14.7851L3.52227 14.2208ZM3.72101 14.5124L3.95691 15.4842C4.2753 15.4069 4.53564 15.1786 4.65376 14.873C4.77188 14.5674 4.73281 14.2233 4.54917 13.9519L3.72101 14.5124ZM3.44145 14.5789L3.21265 13.6054L3.21156 13.6057L3.44145 14.5789ZM33.438 15.8132L32.6812 16.4668C32.9377 16.7638 33.3443 16.8834 33.7208 16.7724C34.0972 16.6614 34.374 16.3405 34.4284 15.9518L33.438 15.8132ZM30.9125 14.5184L30.1343 13.8904C29.9107 14.1674 29.8513 14.5424 29.9782 14.875C30.1052 15.2076 30.3994 15.4476 30.7507 15.5053L30.9125 14.5184ZM33.3521 12.4996L34.2971 12.1726L34.297 12.1724L33.3521 12.4996ZM32.4435 12.3252L31.6867 11.6716L31.6862 11.6721L32.4435 12.3252ZM31.636 13.47L32.468 14.0247C32.4721 14.0185 32.4762 14.0123 32.4801 14.0061L31.636 13.47ZM31.6359 13.47L30.8039 12.9153C30.7998 12.9215 30.7957 12.9277 30.7917 12.934L31.6359 13.47ZM11.0002 3.95909L10.046 3.66004C9.93575 4.01183 10.028 4.39574 10.286 4.65904C10.5441 4.92233 10.9261 5.0223 11.28 4.91916L11.0002 3.95909ZM12.4957 1.23994L13.1783 1.97074L13.1796 1.96948L12.4957 1.23994ZM13.4754 3.94866L13.2577 4.92469C13.5695 4.99421 13.8958 4.9106 14.1357 4.69968C14.3756 4.48875 14.5003 4.17591 14.4712 3.85779L13.4754 3.94866ZM13.4138 3.25883L14.4099 3.17085V3.17084L13.4138 3.25883ZM13.2471 1.50366L14.2413 1.396L14.2411 1.3938L13.2471 1.50366ZM12.9715 1.01496L12.6814 1.97197L12.6827 1.97236L12.9715 1.01496ZM12.5329 1.20457L11.8412 0.482407L11.8412 0.482415L12.5329 1.20457ZM21.4109 4.92819C22.1172 4.75761 22.7421 4.73834 23.3958 4.91213L23.9097 2.97927C22.8708 2.70309 21.9009 2.75236 20.9414 2.98407L21.4109 4.92819ZM20.2557 3.08352C20.2316 3.34168 20.2077 3.59699 20.1813 3.85429L22.1709 4.05797C22.1983 3.79057 22.223 3.52662 22.247 3.26981L20.2557 3.08352ZM20.4544 1.27731C20.3677 1.8847 20.311 2.49265 20.2557 3.08352L22.247 3.26981C22.3031 2.67057 22.3556 2.1113 22.4343 1.56019L20.4544 1.27731ZM22.7943 0.454539C22.6557 0.331088 22.4791 0.199501 22.267 0.109921C22.0522 0.0191998 21.7363 -0.0536299 21.3863 0.0521477C20.653 0.273765 20.4948 0.995084 20.4545 1.27719L22.4343 1.56031C22.4414 1.5109 22.4434 1.55298 22.3972 1.6339C22.3435 1.72798 22.2103 1.89248 21.9649 1.96663C21.732 2.03702 21.5517 1.9789 21.4888 1.95234C21.4287 1.92692 21.4202 1.90894 21.4639 1.9479L22.7943 0.454539ZM24.6079 3.64954C24.2732 2.57026 23.8266 1.37314 22.7939 0.454189L21.4643 1.94825C22.0591 2.47752 22.3772 3.2084 22.6976 4.24186L24.6079 3.64954ZM20.316 11.0712C20.3526 9.47977 20.6089 8.05488 21.3655 6.80173L19.6533 5.76804C18.6432 7.44114 18.3571 9.26135 18.3165 11.0253L20.316 11.0712ZM20.6799 13.3877C20.4316 12.5783 20.2789 11.8349 20.3151 11.0973L18.3175 10.9992C18.2648 12.0733 18.4914 13.0732 18.7678 13.9742L20.6799 13.3877ZM21.522 14.8418C21.1313 14.5259 20.8866 14.057 20.6793 13.3859L18.7684 13.9761C19.0176 14.783 19.4132 15.7087 20.2645 16.397L21.522 14.8418ZM23.9782 14.8252C23.0974 15.3693 22.0736 15.288 21.5222 14.8419L20.2643 16.3969C21.5952 17.4735 23.5653 17.431 25.0292 16.5268L23.9782 14.8252ZM25.7841 10.7086C26.0855 12.2471 25.3042 14.0061 23.9782 14.8253L25.0293 16.5268C27.0558 15.2749 28.2101 12.6892 27.7468 10.3241L25.7841 10.7086ZM22.7411 6.26552C24.4024 7.29824 25.4035 8.77355 25.7842 10.7093L27.7466 10.3234C27.2618 7.85781 25.9419 5.90029 23.797 4.56697L22.7411 6.26552ZM22.0891 6.11254C22.2558 6.06588 22.4564 6.08832 22.7407 6.26527L23.7975 4.56722C23.2103 4.20183 22.4268 3.94118 21.5501 4.18655L22.0891 6.11254ZM21.3661 6.80065C21.6291 6.36387 21.8442 6.18065 22.0876 6.11297L21.5516 4.18612C20.5737 4.45814 20.0122 5.17187 19.6526 5.76912L21.3661 6.80065ZM15.6993 14.5419C16.1379 13.3902 16.3191 12.2212 16.3368 11.0423L14.337 11.0123C14.3221 12.0028 14.1713 12.9346 13.8303 13.8301L15.6993 14.5419ZM9.61845 16.5112C10.549 17.0876 11.7504 17.3721 12.9043 17.11C14.1068 16.8369 15.1472 15.9927 15.6994 14.5417L13.8302 13.8303C13.5035 14.6887 12.9773 15.0425 12.4613 15.1597C11.8967 15.2879 11.2276 15.1553 10.6716 14.8109L9.61845 16.5112ZM6.93181 10.1392C6.40383 12.5411 7.53402 15.2218 9.61896 16.5115L10.6711 14.8106C9.31157 13.9697 8.5387 12.1448 8.88518 10.5686L6.93181 10.1392ZM10.578 4.73581C8.67191 6.04941 7.4318 7.8623 6.93177 10.1394L8.88522 10.5683C9.27447 8.79575 10.216 7.4142 11.7129 6.38262L10.578 4.73581ZM12.6716 4.10292C11.8305 4.04203 11.1232 4.36111 10.5791 4.73509L11.7119 6.38334C12.0392 6.15836 12.2982 6.08112 12.5272 6.0977L12.6716 4.10292ZM14.8126 5.46534C14.4137 4.90009 13.7582 4.18516 12.6749 4.10317L12.5239 6.09746C12.7005 6.11082 12.8898 6.20941 13.1786 6.61857L14.8126 5.46534ZM16.1734 9.11996C15.9694 7.905 15.6256 6.61621 14.8124 5.465L13.1788 6.61892C13.738 7.41059 14.0167 8.35374 14.201 9.45118L16.1734 9.11996ZM16.3369 11.0324C16.3402 10.3794 16.2773 9.74206 16.1735 9.12078L14.2009 9.45036C14.2898 9.9823 14.3395 10.5041 14.3369 11.0223L16.3369 11.0324ZM1.8402 16.2244C0.549348 17.7293 0.073799 19.5012 0.000636399 21.551L1.99936 21.6223C2.06256 19.8519 2.4585 18.5754 3.35823 17.5265L1.8402 16.2244ZM4.49661 14.702C3.26302 14.8062 2.4293 15.5382 1.84048 16.2241L3.35794 17.5269C3.8155 16.9939 4.20602 16.7336 4.66502 16.6949L4.49661 14.702ZM6.90802 15.4541C6.29855 15.0254 5.49543 14.6166 4.49566 14.702L4.66596 16.6948C4.99121 16.667 5.32044 16.7826 5.75735 17.09L6.90802 15.4541ZM10.0294 19.0199C9.2332 17.7609 8.29584 16.4329 6.90904 15.4548L5.75633 17.0892C6.80318 17.8276 7.5673 18.8686 8.33915 20.0889L10.0294 19.0199ZM10.9964 20.7354C10.7031 20.1798 10.3897 19.5895 10.0294 19.0198L8.33916 20.0889C8.65175 20.5832 8.93118 21.1073 9.22775 21.6691L10.9964 20.7354ZM10.9456 24.2711C11.579 23.1345 11.6268 21.924 10.9956 20.7338L9.22864 21.6708C9.52822 22.2357 9.51665 22.7268 9.19856 23.2976L10.9456 24.2711ZM9.35526 26.1756C9.86299 25.6815 10.4975 25.0735 10.9452 24.2719L9.199 23.2968C8.91663 23.8024 8.50161 24.2156 7.96048 24.7422L9.35526 26.1756ZM9.35512 26.1757L9.35523 26.1756L7.96052 24.7422L7.96041 24.7423L9.35512 26.1757ZM9.36482 26.1662L9.36487 26.1661L7.95066 24.7519L7.95061 24.7519L9.36482 26.1662ZM9.34305 26.1873L9.34308 26.1872L7.97235 24.7308L7.97232 24.7309L9.34305 26.1873ZM8.90723 26.6191C9.04911 26.4736 9.19656 26.33 9.35508 26.1758L7.9603 24.7424C7.80494 24.8935 7.63858 25.0553 7.47531 25.2228L8.90723 26.6191ZM7.57536 27.7613C8.03237 27.4243 8.48624 27.0507 8.90715 26.6192L7.47538 25.2227C7.15227 25.554 6.78801 25.8569 6.38835 26.1516L7.57536 27.7613ZM3.51597 27.819C4.18874 28.3132 4.88633 28.6271 5.66287 28.579C6.40969 28.5328 7.0345 28.1593 7.57452 27.7619L6.38919 26.151C5.92284 26.4941 5.68877 26.5736 5.53927 26.5828C5.4195 26.5902 5.18335 26.5622 4.70006 26.2072L3.51597 27.819ZM0.000705242 21.6242C0.095822 24.1555 1.44085 26.2939 3.51581 27.8189L4.70022 26.2073C3.01651 24.9699 2.06721 23.3566 1.99929 21.5491L0.000705242 21.6242ZM19.3715 39.3792L19.3716 39.3792L19.7293 37.4115L19.7293 37.4115L19.3715 39.3792ZM19.1222 39.3218L19.3209 39.3686L19.7799 37.422L19.5813 37.3752L19.1222 39.3218ZM15.1431 39.4103C16.4763 39.0557 17.8021 39.0137 19.1245 39.3223L19.579 37.3747C17.9134 36.986 16.2542 37.0453 14.6291 37.4774L15.1431 39.4103ZM10.5071 39.5313C12.1125 39.9456 13.6641 39.8049 15.1439 39.41L14.6283 37.4777C13.372 37.8129 12.1847 37.8987 11.0067 37.5948L10.5071 39.5313ZM6.31814 35.6318C7.01807 37.6324 8.40823 38.9905 10.5074 39.5314L11.0064 37.5947C9.58995 37.2297 8.69764 36.3768 8.20594 34.9713L6.31814 35.6318ZM6.08102 32.0293C5.67881 33.3598 5.95276 34.5844 6.31784 35.6309L8.20624 34.9722C7.8925 34.0728 7.77518 33.3367 7.99545 32.6081L6.08102 32.0293ZM8.60394 28.9591C7.57562 29.6429 6.5297 30.5437 6.08095 32.0296L7.99553 32.6078C8.24338 31.7872 8.82187 31.216 9.71142 30.6244L8.60394 28.9591ZM11.1317 27.0122C10.4153 27.747 9.56103 28.3242 8.60489 28.9584L9.71047 30.6251C10.6455 30.0048 11.6765 29.3185 12.5638 28.4084L11.1317 27.0122ZM12.752 24.5527C12.2669 25.5104 11.7921 26.3343 11.1314 27.0125L12.564 28.4081C13.4477 27.5009 14.0342 26.4475 14.5362 25.4564L12.752 24.5527ZM15.6096 21.6536C14.1613 22.2471 13.3276 23.418 12.7523 24.5521L14.5359 25.457C15.0217 24.4992 15.5694 23.8315 16.368 23.5042L15.6096 21.6536ZM21.082 23.2606C19.7603 21.5104 17.6459 20.8186 15.6094 21.6537L16.3682 23.5042C17.4856 23.0459 18.6586 23.3703 19.486 24.4659L21.082 23.2606ZM22.0997 24.9234C21.8164 24.3179 21.4653 23.7679 21.0818 23.2604L19.4861 24.4661C19.8052 24.8883 20.0766 25.3188 20.2883 25.7711L22.0997 24.9234ZM25.2947 28.4517C23.8852 27.5282 22.7899 26.3973 22.0997 24.9232L20.2884 25.7713C21.1692 27.6525 22.552 29.0456 24.1986 30.1246L25.2947 28.4517ZM26.671 29.3918C26.2184 29.0707 25.7595 28.7571 25.2958 28.4524L24.1975 30.1239C24.6409 30.4152 25.0802 30.7154 25.5138 31.0231L26.671 29.3918ZM28.6236 34.6588C29.1048 32.6121 28.3792 30.6019 26.6705 29.3914L25.5144 31.0234C26.5357 31.7469 26.9781 32.9192 26.6767 34.2011L28.6236 34.6588ZM25.8964 38.7948C27.514 37.7988 28.2498 36.2436 28.6234 34.6595L26.6769 34.2004C26.3687 35.5068 25.8388 36.4815 24.8478 37.0917L25.8964 38.7948ZM22.0809 39.7895C23.3865 39.7945 24.697 39.5321 25.8958 38.7951L24.8484 37.0913C24.0405 37.588 23.1189 37.7935 22.0886 37.7895L22.0809 39.7895ZM19.3205 39.3685C20.1363 39.5614 21.0826 39.7895 22.0848 39.7895V37.7895C21.354 37.7895 20.6336 37.6238 19.7804 37.4222L19.3205 39.3685ZM32.637 21.486C32.5771 23.3496 31.6602 24.9362 30.0401 26.1639L31.2481 27.7579C33.2651 26.2293 34.5536 24.1149 34.636 21.5503L32.637 21.486ZM31.2962 17.5113C32.2039 18.579 32.5974 19.8697 32.6368 21.5417L34.6362 21.4946C34.5896 19.5133 34.1087 17.7317 32.8199 16.2158L31.2962 17.5113ZM30.0201 16.6976C30.4691 16.737 30.856 16.9918 31.2951 17.5101L32.821 16.2171C32.2375 15.5285 31.4089 14.8118 30.195 14.7052L30.0201 16.6976ZM28.7023 17.2384C29.218 16.8268 29.6095 16.6612 30.0194 16.6975L30.1957 14.7053C29.0227 14.6015 28.1189 15.1451 27.4547 15.6752L28.7023 17.2384ZM25.5486 21.3924C26.4603 19.7488 27.3683 18.3038 28.7026 17.2382L27.4545 15.6754C25.7889 17.0056 24.7228 18.7581 23.7996 20.4222L25.5486 21.3924ZM25.8439 23.8399C25.4603 23.4063 25.2865 23.015 25.242 22.6613C25.1982 22.3122 25.2675 21.8986 25.5484 21.3927L23.7998 20.4219C23.3544 21.2241 23.1511 22.0621 23.2576 22.9106C23.3636 23.7544 23.7634 24.5067 24.3461 25.1652L25.8439 23.8399ZM28.2834 26.1566C27.4028 25.4822 26.6031 24.6962 25.8433 23.8392L24.3467 25.1659C25.164 26.0878 26.0568 26.9706 27.0674 27.7444L28.2834 26.1566ZM30.0404 26.1637C29.5611 26.5267 29.2987 26.5816 29.1467 26.5784C28.987 26.575 28.7355 26.5032 28.2839 26.1569L27.0669 27.7441C27.6587 28.1979 28.3239 28.5612 29.1039 28.5779C29.8915 28.5948 30.5918 28.2549 31.2478 27.7582L30.0404 26.1637ZM3.65774 15.5552L3.65783 15.5552L3.22397 13.6029L3.22388 13.6029L3.65774 15.5552ZM1.88404 16.507C2.34994 16.0873 2.61695 15.9096 2.82417 15.8085C3.03485 15.7058 3.23346 15.655 3.66961 15.5525L3.21202 13.6056C2.80906 13.7003 2.39159 13.7943 1.94749 14.0109C1.49993 14.2292 1.07346 14.5454 0.545439 15.021L1.88404 16.507ZM0.37612 12.1662C-0.0873784 13.4903 0.0649199 14.7953 0.22495 15.9065L2.20453 15.6215C2.04442 14.5097 1.97736 13.6453 2.26382 12.8269L0.37612 12.1662ZM2.98323 11.6692C2.84579 11.511 2.67216 11.3387 2.46037 11.2092C2.24366 11.0767 1.91033 10.9448 1.51281 11.0188C1.11378 11.0931 0.849473 11.3377 0.694419 11.5428C0.543628 11.7423 0.44537 11.968 0.375966 12.1666L2.26397 12.8265C2.30054 12.7219 2.31622 12.714 2.28988 12.7489C2.25928 12.7893 2.12994 12.9382 1.87894 12.985C1.62944 13.0314 1.4572 12.9401 1.41719 12.9156C1.3821 12.8942 1.40078 12.8972 1.47379 12.9812L2.98323 11.6692ZM3.76291 12.7712C3.55641 12.4439 3.30467 12.0413 2.98533 11.6716L1.4717 12.9788C1.67682 13.2163 1.85153 13.4898 2.07133 13.8383L3.76291 12.7712ZM3.76082 12.768L3.76078 12.7679L2.07346 13.8416L2.0735 13.8417L3.76082 12.768ZM3.74602 12.7454L3.74601 12.7454L2.08831 13.8643L2.08832 13.8643L3.74602 12.7454ZM3.92823 13.0313C3.87398 12.9473 3.82012 12.8619 3.76296 12.7713L2.07138 13.8384C2.1276 13.9275 2.1871 14.0218 2.24806 14.1162L3.92823 13.0313ZM4.34763 13.6561C4.19659 13.4352 4.05914 13.2341 3.92826 13.0314L2.24803 14.1162C2.39565 14.3448 2.54819 14.5678 2.69662 14.7849L4.34763 13.6561ZM4.3492 13.6584L4.34905 13.6582L2.6952 14.7828L2.69534 14.7831L4.3492 13.6584ZM4.54917 13.9519C4.48054 13.8505 4.41295 13.7517 4.34778 13.6564L2.69677 14.7851C2.76233 14.8811 2.82729 14.9761 2.89285 15.0729L4.54917 13.9519ZM3.67025 15.5524C3.75779 15.5318 3.85397 15.5092 3.95691 15.4842L3.48511 13.5407C3.39028 13.5637 3.3009 13.5847 3.21265 13.6054L3.67025 15.5524ZM3.6708 15.5523L3.67134 15.5521L3.21156 13.6057L3.21101 13.6058L3.6708 15.5523ZM34.1949 15.1596C33.2852 14.1062 32.1805 13.713 31.0743 13.5316L30.7507 15.5053C31.589 15.6427 32.1859 15.8932 32.6812 16.4668L34.1949 15.1596ZM32.407 12.8265C32.6864 13.6339 32.6143 14.4839 32.4477 15.6746L34.4284 15.9518C34.5908 14.7914 34.7529 13.4899 34.2971 12.1726L32.407 12.8265ZM33.2004 12.9788C33.2724 12.8954 33.2902 12.8935 33.2536 12.9158C33.2115 12.9414 33.0382 13.0322 32.7888 12.9846C32.5391 12.9369 32.4111 12.7885 32.3812 12.7487C32.3552 12.7142 32.371 12.7224 32.4071 12.8267L34.297 12.1724C34.2279 11.9728 34.13 11.7465 33.9795 11.5464C33.825 11.341 33.5616 11.0959 33.1636 11.02C32.7657 10.9441 32.4309 11.0749 32.2121 11.2083C31.9987 11.3385 31.8244 11.5122 31.6867 11.6716L33.2004 12.9788ZM32.4801 14.0061C32.7387 13.5989 32.9506 13.2684 33.2008 12.9783L31.6862 11.6721C31.3247 12.0914 31.0372 12.5475 30.7918 12.934L32.4801 14.0061ZM32.468 14.0247L32.468 14.0247L30.8039 12.9153L30.8039 12.9153L32.468 14.0247ZM31.6907 15.1465C32.0029 14.7596 32.2594 14.3537 32.4801 14.0061L30.7917 12.934C30.5617 13.2963 30.3638 13.6061 30.1343 13.8904L31.6907 15.1465ZM11.9545 4.25814C12.2757 3.23312 12.6031 2.50798 13.1783 1.97074L11.8131 0.509134C10.841 1.41714 10.3888 2.56636 10.046 3.66004L11.9545 4.25814ZM13.693 2.97263C12.7824 2.76958 11.8029 2.68359 10.7205 2.99902L11.28 4.91916C11.9257 4.73098 12.538 4.76419 13.2577 4.92469L13.693 2.97263ZM12.4177 3.34681C12.4378 3.57527 12.4583 3.80652 12.4795 4.03953L14.4712 3.85779C14.4503 3.62815 14.4301 3.39977 14.4099 3.17085L12.4177 3.34681ZM12.2529 1.61131C12.3147 2.18189 12.3654 2.75485 12.4177 3.34681L14.4099 3.17084C14.3579 2.58222 14.3056 1.98953 14.2413 1.396L12.2529 1.61131ZM12.6827 1.97236C12.5833 1.94239 12.4843 1.88545 12.4019 1.80392C12.3242 1.72702 12.2841 1.65097 12.2651 1.60645C12.247 1.56412 12.243 1.53842 12.2444 1.54547C12.2458 1.55291 12.2482 1.56875 12.2532 1.61352L14.2411 1.3938C14.2322 1.31383 14.2092 1.06658 14.1047 0.821651C13.9803 0.530155 13.7217 0.196744 13.2602 0.0575484L12.6827 1.97236ZM13.2246 1.92673C13.2588 1.89398 13.2681 1.88548 13.2735 1.88095C13.2774 1.87766 13.2562 1.89651 13.2148 1.91949C13.171 1.94382 13.0952 1.97806 12.9923 1.9936C12.8844 2.00989 12.777 2.00094 12.6814 1.97197L13.2615 0.0579405C12.8538 -0.0656264 12.494 0.0320557 12.2438 0.171022C12.0387 0.284914 11.8814 0.443828 11.8412 0.482407L13.2246 1.92673ZM13.1796 1.96948C13.1965 1.95365 13.2128 1.93803 13.2246 1.92673L11.8412 0.482415C11.8279 0.495077 11.8195 0.503177 11.8118 0.510398L13.1796 1.96948Z" fill="#367560"/>
</svg>
