<svg width="48" height="48" viewBox="0 0 48 48" fill="none" xmlns="http://www.w3.org/2000/svg">
<path d="M24 3V1" stroke="#367560" stroke-width="2" stroke-linecap="round" stroke-linejoin="round"/>
<path d="M13.956 5.558L13 3.802" stroke="#367560" stroke-width="2" stroke-linecap="round" stroke-linejoin="round"/>
<path d="M6.35969 12.608L4.67969 11.522" stroke="#367560" stroke-width="2" stroke-linecap="round" stroke-linejoin="round"/>
<path d="M34.0439 5.558L34.9999 3.802" stroke="#367560" stroke-width="2" stroke-linecap="round" stroke-linejoin="round"/>
<path d="M41.6396 12.608L43.3196 11.522" stroke="#367560" stroke-width="2" stroke-linecap="round" stroke-linejoin="round"/>
<path d="M24 45V47" stroke="#367560" stroke-width="2" stroke-linecap="round" stroke-linejoin="round"/>
<path d="M13.956 42.444L13 44.2" stroke="#367560" stroke-width="2" stroke-linecap="round" stroke-linejoin="round"/>
<path d="M6.35969 35.394L4.67969 36.478" stroke="#367560" stroke-width="2" stroke-linecap="round" stroke-linejoin="round"/>
<path d="M34.0439 42.444L34.9999 44.2" stroke="#367560" stroke-width="2" stroke-linecap="round" stroke-linejoin="round"/>
<path d="M41.6396 35.394L43.3196 36.478" stroke="#367560" stroke-width="2" stroke-linecap="round" stroke-linejoin="round"/>
<path d="M24 38C31.732 38 38 31.732 38 24C38 16.268 31.732 10 24 10C16.268 10 10 16.268 10 24C10 31.732 16.268 38 24 38Z" stroke="#367560" stroke-width="2" stroke-linecap="round" stroke-linejoin="round"/>
<path d="M47 24C47 24 37 38 24 38C11 38 1 24 1 24C1 24 11 10 24 10C37 10 47 24 47 24Z" stroke="#367560" stroke-width="2" stroke-linecap="round" stroke-linejoin="round"/>
</svg>
