<svg width="48" height="48" viewBox="0 0 48 48" fill="none" xmlns="http://www.w3.org/2000/svg">
<g clip-path="url(#clip0)">
<path d="M14.915 2.63321C14.7808 2.43197 14.599 2.26696 14.3857 2.15284C14.1725 2.03872 13.9343 1.979 13.6925 1.979C13.4506 1.979 13.2124 2.03872 12.9992 2.15284C12.7859 2.26696 12.6041 2.43197 12.4699 2.63321L4.87614 15.2033H9.2843L3.60267 23.2908C3.47512 23.5141 3.4084 23.767 3.40919 24.0241C3.40997 24.2813 3.47822 24.5337 3.60713 24.7562C3.73603 24.9787 3.92107 25.1635 4.14376 25.2921C4.36645 25.4207 4.61898 25.4886 4.87614 25.489H22.5088C22.7661 25.489 23.0189 25.4213 23.2418 25.2929C23.4648 25.1644 23.6501 24.9796 23.7793 24.7571C23.9084 24.5345 23.9768 24.2819 23.9777 24.0246C23.9786 23.7673 23.9118 23.5143 23.7842 23.2908L18.1006 15.2033H22.5088L14.915 2.63321Z" stroke="#367560" stroke-width="2" stroke-linecap="round" stroke-linejoin="round"/>
<path d="M13.6943 25.4897V34.4667" stroke="#367560" stroke-width="2" stroke-linecap="round" stroke-linejoin="round"/>
<path d="M38.2076 2.51405C38.0977 2.34958 37.949 2.21476 37.7745 2.12152C37.6 2.02827 37.4053 1.97949 37.2075 1.97949C37.0097 1.97949 36.8149 2.02827 36.6404 2.12152C36.466 2.21476 36.3172 2.34958 36.2073 2.51405L29.9928 12.2649H33.5996L28.5489 19.2827C28.444 19.4655 28.3891 19.6727 28.3897 19.8834C28.3902 20.0942 28.4462 20.301 28.552 20.4833C28.6578 20.6655 28.8097 20.8167 28.9925 20.9217C29.1752 21.0266 29.3824 21.0817 29.5931 21.0812H44.816C45.0267 21.0817 45.2338 21.0266 45.4166 20.9217C45.5993 20.8167 45.7512 20.6655 45.857 20.4833C45.9629 20.301 46.0189 20.0942 46.0194 19.8834C46.02 19.6727 45.9651 19.4655 45.8602 19.2827L40.8133 12.2649H44.4202L38.2076 2.51405Z" stroke="#367560" stroke-width="2" stroke-linecap="round" stroke-linejoin="round"/>
<path d="M37.2061 21.0815V28.9868" stroke="#367560" stroke-width="2" stroke-linecap="round" stroke-linejoin="round"/>
<path d="M2.0459 35.7755C7.58171 33.8517 13.5993 33.8187 19.1559 35.6814C24.7125 37.5441 29.4943 41.1974 32.7522 46.069" stroke="#367560" stroke-width="2" stroke-linecap="round" stroke-linejoin="round"/>
<path d="M21.96 36.7903C27.6757 31.41 35.2322 28.4185 43.0819 28.4285C44.0733 28.4285 45.0529 28.4742 46.0207 28.5656" stroke="#367560" stroke-width="2" stroke-linecap="round" stroke-linejoin="round"/>
</g>
<defs>
<clipPath id="clip0">
<rect width="47.0204" height="47.0204" fill="white" transform="translate(0.469727 0.510254)"/>
</clipPath>
</defs>
</svg>
