<svg width="152" height="14" viewBox="0 0 152 14" fill="none" xmlns="http://www.w3.org/2000/svg">
<path d="M19.5574 3.29462C18.5544 3.43056 17.3547 3.59318 16.2401 3.86926L10.6858 4.50921L10.8003 6.50264H18.4651C20.0148 6.50264 21.5997 6.52606 23.1494 6.57281C22.0671 6.63241 21.0594 6.70821 20.1653 6.78373C19.4267 6.84612 18.7616 6.90869 18.199 6.96162C18.0277 6.97774 17.8659 6.99296 17.7144 7.00701C17.039 7.06965 16.6163 7.1039 16.4193 7.1039C15.8067 7.1039 14.5668 7.2847 13.1872 7.52314C11.783 7.76583 10.1296 8.08766 8.5977 8.40984C7.82619 8.49272 7.13173 8.56551 6.50886 8.63079C4.71343 8.81898 3.51271 8.94482 2.77536 9.0705C2.51896 9.1142 2.28452 9.16317 2.08376 9.22398C1.90484 9.27817 1.64597 9.37172 1.42605 9.5587C1.1434 9.79901 0.944732 10.1842 1.01335 10.6393C1.05631 10.9242 1.19493 11.1429 1.29018 11.2704C1.42049 11.4672 1.58495 11.575 1.65881 11.6197C1.77989 11.6931 1.90122 11.7396 1.99121 11.7696C2.1753 11.831 2.39148 11.876 2.60893 11.9121C3.05368 11.986 3.66175 12.0477 4.39409 12.1009C5.86698 12.2077 7.94336 12.2865 10.4473 12.3422C15.4602 12.4538 22.2431 12.474 29.4656 12.4335C43.9089 12.3525 60.151 12.0287 67.58 11.7042L67.58 11.7043L67.5914 11.7036C73.4954 11.3783 76.6224 11.2215 78.3474 11.2995C79.2236 11.3391 79.5884 11.4371 79.7423 11.5124C79.7461 11.5142 79.7498 11.516 79.7534 11.5177C79.7861 11.5331 79.8079 11.5434 79.8417 11.6091C79.8676 11.7595 79.9197 11.9196 80.0134 12.0772C80.1625 12.3281 80.3708 12.4951 80.5733 12.6053C80.9326 12.8008 81.382 12.8729 81.8074 12.9143C82.6858 13 84.1264 13 86.3385 13H86.4393L86.6392 13C88.7663 13.0001 90.0861 13.0001 90.7315 12.9093C90.891 12.8869 91.1355 12.8446 91.357 12.7297C91.4738 12.6692 91.6701 12.5452 91.8133 12.3106C91.9789 12.0394 92.0035 11.7362 91.9362 11.4761C91.8863 11.2836 91.7938 11.1403 91.7249 11.0512C92.4223 10.8427 93.0611 10.5909 93.5314 10.3101C93.6648 10.2635 93.9376 10.1871 94.3787 10.0862C94.8707 9.97379 95.5091 9.8446 96.2652 9.70368C97.776 9.42209 99.7287 9.09879 101.862 8.77462C106.114 8.12857 111.052 7.48406 114.599 7.16152C115.494 7.15765 116.9 7.04378 118.479 6.91585C118.809 6.88915 119.146 6.86184 119.488 6.83479C121.533 6.67294 123.798 6.5142 125.8 6.5142C129.409 6.5142 131.252 6.51594 132.584 6.66948C133.814 6.81112 134.594 7.08008 136.023 7.68093L138.476 9.55723L138.745 9.76288H139.084H143.166H143.905C144.069 9.83719 144.227 9.87427 144.349 9.89405C144.625 9.93855 144.913 9.92707 145.174 9.89577C145.702 9.83241 146.31 9.66367 146.899 9.44381C147.493 9.22161 148.11 8.93132 148.656 8.60029C149.155 8.29816 149.655 7.92684 150.014 7.49791C150.405 7.15708 150.78 6.73933 150.93 6.25039C151.02 5.95951 151.041 5.60319 150.887 5.24806C150.736 4.89972 150.471 4.67579 150.221 4.53946C149.761 4.28862 149.176 4.23344 148.626 4.24509C148.066 4.25696 147.397 4.34363 146.636 4.50238C145.168 4.49525 143.249 4.33764 141.767 4.03573C141.03 3.88572 140.478 3.71488 140.148 3.54917L140.538 2.54881H139.075H139.075H139.074H139.074H139.074H139.074H139.074H139.074H139.073H139.073H139.073H139.073H139.073H139.072H139.072H139.072H139.072H139.071H139.071H139.071H139.07H139.07H139.07H139.069H139.069H139.069H139.068H139.068H139.068H139.067H139.067H139.066H139.066H139.065H139.065H139.064H139.064H139.063H139.063H139.062H139.062H139.061H139.061H139.06H139.06H139.059H139.058H139.058H139.057H139.056H139.056H139.055H139.054H139.054H139.053H139.052H139.052H139.051H139.05H139.049H139.049H139.048H139.047H139.046H139.045H139.044H139.044H139.043H139.042H139.041H139.04H139.039H139.038H139.037H139.036H139.035H139.035H139.034H139.033H139.032H139.031H139.03H139.028H139.027H139.026H139.025H139.024H139.023H139.022H139.021H139.02H139.019H139.018H139.016H139.015H139.014H139.013H139.012H139.01H139.009H139.008H139.007H139.005H139.004H139.003H139.002H139H138.999H138.998H138.996H138.995H138.993H138.992H138.991H138.989H138.988H138.986H138.985H138.984H138.982H138.981H138.979H138.978H138.976H138.975H138.973H138.971H138.97H138.968H138.967H138.965H138.964H138.962H138.96H138.959H138.957H138.955H138.954H138.952H138.95H138.949H138.947H138.945H138.943H138.942H138.94H138.938H138.936H138.934H138.933H138.931H138.929H138.927H138.925H138.923H138.921H138.92H138.918H138.916H138.914H138.912H138.91H138.908H138.906H138.904H138.902H138.9H138.898H138.896H138.894H138.892H138.89H138.888H138.886H138.883H138.881H138.879H138.877H138.875H138.873H138.87H138.868H138.866H138.864H138.862H138.859H138.857H138.855H138.853H138.85H138.848H138.846H138.843H138.841H138.839H138.836H138.834H138.832H138.829H138.827H138.824H138.822H138.82H138.817H138.815H138.812H138.81H138.807H138.805H138.802H138.8H138.797H138.795H138.792H138.789H138.787H138.784H138.782H138.779H138.776H138.774H138.771H138.768H138.766H138.763H138.76H138.757H138.755H138.752H138.749H138.747H138.744H138.741H138.738H138.735H138.732H138.73H138.727H138.724H138.721H138.718H138.715H138.712H138.709H138.707H138.704H138.701H138.698H138.695H138.692H138.689H138.686H138.683H138.68H138.677H138.673H138.67H138.667H138.664H138.661H138.658H138.655H138.652H138.649H138.645H138.642H138.639H138.636H138.633H138.629H138.626H138.623H138.62H138.616H138.613H138.61H138.606H138.603H138.6H138.596H138.593H138.59H138.586H138.583H138.58H138.576H138.573H138.569H138.566H138.562H138.559H138.555H138.552H138.548H138.545H138.541H138.538H138.534H138.531H138.527H138.524H138.52H138.516H138.513H138.509H138.505H138.502H138.498H138.494H138.491H138.487H138.483H138.48H138.476H138.472H138.468H138.464H138.461H138.457H138.453H138.449H138.445H138.442H138.438H138.434H138.43H138.426H138.422H138.418H138.414H138.41H138.406H138.402H138.398H138.394H138.39H138.386H138.382H138.378H138.374H138.37H138.366H138.362H138.358H138.354H138.35H138.346H138.341H138.337H138.333H138.329H138.325H138.321H138.316H138.312H138.308H138.304H138.299H138.295H138.291H138.287H138.282H138.278H138.274H138.269H138.265H138.26H138.256H138.252H138.247H138.243H138.238H138.234H138.23H138.225H138.221H138.216H138.212H138.207H138.203H138.198H138.194H138.189H138.184H138.18H138.175H138.171H138.166H138.161H138.157H138.152H138.147H138.143H138.138H138.133H138.129H138.124H138.119H138.114H138.11H138.105H138.1H138.095H138.091H138.086H138.081H138.076H138.071H138.066H138.061H138.057H138.052H138.047H138.042H138.037H138.032H138.027H138.022H138.017H138.012H138.007H138.002H137.997H137.992H137.987H137.982H137.977H137.972H137.967H137.961H137.956H137.951H137.946H137.941H137.936H137.93H137.925H137.92H137.915H137.91H137.904H137.899H137.894H137.889H137.883H137.878H137.873H137.867H137.862H137.857H137.851H137.846H137.841H137.835H137.83H137.824H137.819H137.813H137.808H137.802H137.797H137.792H137.786H137.78H137.775H137.769H137.764H137.758H137.753H137.747H137.742H137.736H137.73H137.725H137.719H137.713H137.708H137.702H137.696H137.691H137.685H137.679H137.673H137.668H137.662H137.656H137.65H137.645H137.639H137.633H137.627H137.621H137.615H137.609H137.604H137.598H137.592H137.586H137.58H137.574H137.568H137.562H137.556H137.55H137.544H137.538C137.215 2.54881 136.846 2.44209 136.519 2.30396C136.364 2.23826 136.234 2.17248 136.146 2.1242C136.102 2.10024 136.068 2.08108 136.048 2.06907L136.029 2.05749L136.028 2.05726L136.028 2.05704L136.028 2.05688L136.028 2.05665L136.027 2.05603L136.026 2.05546L135.73 1.8674L135.378 1.90795L129.793 2.55149L116.048 3.19623C104.296 3.19623 91.409 3.1961 80.3097 3.03448C69.1767 2.87237 59.9181 2.54806 55.392 1.91114L55.3691 1.90792L55.3462 1.90577C48.4243 1.25553 41.1074 0.929776 35.0619 1.01271C32.0405 1.05416 29.32 1.19788 27.1173 1.45794C24.9626 1.71232 23.1575 2.09212 22.0769 2.68296L21.8972 2.78121L21.8276 2.86976C21.766 2.89729 21.6608 2.93408 21.4977 2.97545C21.1576 3.06169 20.6961 3.13637 20.1192 3.21755C19.9408 3.24265 19.7528 3.26813 19.5574 3.29462ZM2.61799 9.87017C2.61803 9.87016 2.61934 9.87061 2.62178 9.87156C2.61916 9.87067 2.61794 9.87019 2.61799 9.87017ZM2.60856 11.1572C2.60847 11.1572 2.61027 11.1563 2.6142 11.1548C2.61061 11.1565 2.60864 11.1573 2.60856 11.1572ZM47.6571 5.7993C46.2925 5.71696 44.9951 5.63467 43.7699 5.55243C46.278 5.62541 48.9899 5.725 51.7729 5.84418C61.6314 6.26637 72.3097 6.93131 77.9434 7.52099C76.7945 7.6819 75.3985 7.82401 73.9245 7.91508C71.3288 8.07546 68.6028 8.07021 66.6652 7.76361L66.5875 7.75132H66.5089C65.5654 7.75132 57.4431 7.11312 47.7302 5.80642L47.6938 5.80152L47.6571 5.7993ZM85.3544 7.06016C86.1984 6.97344 87.4252 6.81258 89.0838 6.5142H92.6017C92.4333 6.56495 92.2743 6.61641 92.1263 6.66863C91.869 6.75944 91.6219 6.8605 91.4072 6.97513C91.2759 7.0452 91.1151 7.1417 90.9651 7.2735C90.9184 7.28859 90.8398 7.31144 90.7195 7.33713C90.4918 7.38579 90.1919 7.42914 89.8369 7.46229C89.1283 7.52845 88.2648 7.54807 87.4454 7.50963C86.6102 7.47046 85.8926 7.374 85.4436 7.23793C85.4197 7.23067 85.3976 7.22363 85.3774 7.21686C85.3718 7.17021 85.3644 7.11771 85.3544 7.06016ZM84.3935 7.45647C85.0463 7.45647 85.2729 7.45631 85.3516 7.45608C85.3517 7.45621 85.3517 7.45634 85.3517 7.45647H84.3935ZM21.8672 2.84968C21.8673 2.84972 21.8657 2.85083 21.8619 2.85293C21.8653 2.85069 21.8671 2.84964 21.8672 2.84968Z" fill="white" stroke="white" stroke-width="2"/>
</svg>
