<svg width="195" height="19" viewBox="0 0 195 19" fill="none" xmlns="http://www.w3.org/2000/svg">
<path d="M174.874 16.4505L174.872 16.4522L174.871 16.4524L174.871 16.4527L174.87 16.4531L174.869 16.4537L174.869 16.4539L174.546 16.6928L174.145 16.6391L166.932 15.6732L149.186 14.7057C134.019 14.7057 117.386 14.7058 103.06 14.9483C88.6948 15.1914 76.7373 15.6778 70.8861 16.6348L70.8597 16.6391L70.8332 16.642C61.9042 17.6169 52.4662 18.1053 44.6695 17.9809C40.7727 17.9188 37.2666 17.7034 34.4302 17.3142C31.644 16.9318 29.3463 16.3636 27.9928 15.5034L27.8174 15.392L27.7245 15.2546C27.7133 15.2469 27.6942 15.2348 27.6646 15.219C27.5699 15.1683 27.4195 15.1076 27.197 15.042C26.7489 14.91 26.1459 14.7969 25.402 14.6752C25.1704 14.6373 24.9268 14.5989 24.6739 14.5591C23.3763 14.3546 21.8335 14.1115 20.4015 13.6984L13.2244 12.7372L13.3571 10.746H23.2489C28.4998 10.746 34.0656 10.504 38.3035 10.0219C38.8742 9.95701 39.4177 9.88806 39.9306 9.81529H39.9239H39.8946H39.8651H39.8357H39.8061H39.7766H39.747H39.7173H39.6876H39.6578H39.628H39.5981H39.5682H39.5383H39.5083H39.4782H39.4482H39.418H39.3878H39.3576H39.3273H39.297H39.2666H39.2362H39.2058H39.1753H39.1447H39.1141H39.0835H39.0528H39.0221H38.9913H38.9605H38.9296H38.8987H38.8678H38.8368H38.8058H38.7747H38.7436H38.7125H38.6813H38.65H38.6188H38.5875H38.5561H38.5247H38.4933H38.4618H38.4303H38.3987H38.3671H38.3355H38.3038H38.2721H38.2403H38.2086H38.1767H38.1449H38.113H38.081H38.049H38.017H37.985H37.9529H37.9208H37.8886H37.8564H37.8242H37.7919H37.7596H37.7272H37.6949H37.6625H37.63H37.5975H37.565H37.5325H37.4999H37.4673H37.4346H37.4019H37.3692H37.3365H37.3037H37.2709H37.238H37.2052H37.1723H37.1393H37.1063H37.0733H37.0403H37.0072H36.9741H36.941H36.9079H36.8747H36.8415H36.8082H36.7749H36.7416H36.7083H36.6749H36.6416H36.6081H36.5747H36.5412H36.5077H36.4742H36.4406H36.4071H36.3734H36.3398H36.3061H36.2725H36.2387H36.205H36.1712H36.1374H36.1036H36.0698H36.0359H36.002H35.9681H35.9342H35.9002H35.8662H35.8322H35.7982H35.7641H35.73H35.6959H35.6618H35.6277H35.5935H35.5593H35.5251H35.4908H35.4566H35.4223H35.388H35.3537H35.3194H35.285H35.2506H35.2162H35.1818H35.1474H35.1129H35.0784H35.0439H35.0094H34.9749H34.9403H34.9058H34.8712H34.8366H34.802H34.7673H34.7327H34.698H34.6633H34.6286H34.5939H34.5592H34.5244H34.4896H34.4549C31.1114 9.81529 27.9423 9.56923 25.454 9.32494C24.5014 9.23142 23.644 9.13767 22.9181 9.05828C22.6969 9.0341 22.4879 9.01124 22.2921 8.99014C21.4232 8.89646 20.8703 8.84416 20.6087 8.84416C19.8316 8.84416 18.2438 8.57587 16.4604 8.21761C14.6481 7.85357 12.5132 7.3705 10.5356 6.88699C9.53384 6.7619 8.63333 6.65219 7.82659 6.55391C5.51247 6.27199 3.96987 6.08406 3.02315 5.89651C2.69436 5.83138 2.39928 5.7594 2.15013 5.6717C1.9189 5.59029 1.62659 5.46194 1.39233 5.23044C1.10473 4.94624 0.956596 4.55633 1.01111 4.13611C1.04914 3.8429 1.17881 3.6023 1.28392 3.44027C1.39927 3.23133 1.55773 3.10256 1.65264 3.03573C1.78573 2.94201 1.92448 2.87923 2.03551 2.8362C2.25999 2.74921 2.52918 2.6835 2.80777 2.62968C3.3752 2.52006 4.15494 2.4279 5.09902 2.34833C6.99651 2.1884 9.67355 2.07023 12.9044 1.98664C19.372 1.81931 28.1243 1.78904 37.4447 1.84976C56.0838 1.97119 77.0431 2.45689 86.628 2.94347L86.6412 2.94432C94.2567 3.43215 98.3008 3.6681 100.535 3.55061C101.664 3.49126 102.164 3.34522 102.402 3.20957C102.537 3.13292 102.625 3.04532 102.731 2.76884C102.75 2.5868 102.799 2.3904 102.898 2.19525C103.04 1.9191 103.249 1.71319 103.484 1.56449C103.906 1.29777 104.454 1.19044 105.007 1.12776C106.135 0.99996 107.989 0.999975 110.854 1H110.972H110.983C112.458 1 113.62 1 114.504 1.01532C115.373 1.03037 116.04 1.06041 116.493 1.13451C116.701 1.16844 116.99 1.22927 117.241 1.38055C117.378 1.46333 117.565 1.60877 117.692 1.8507C117.83 2.1136 117.846 2.39075 117.793 2.62722C117.708 3.00849 117.448 3.26643 117.341 3.3698C117.235 3.47246 117.112 3.5738 116.986 3.67055C118.187 4.02426 119.307 4.49145 120.054 5.0153C120.235 5.09115 120.602 5.21087 121.188 5.36645C121.825 5.53589 122.652 5.73016 123.628 5.94175C125.58 6.36461 128.102 6.84988 130.856 7.33629C136.348 8.30603 142.726 9.27368 147.308 9.75769C148.456 9.76292 150.267 9.93332 152.309 10.1255C152.735 10.1656 153.171 10.2067 153.613 10.2473C156.252 10.4901 159.179 10.7287 161.769 10.7287C166.423 10.7287 168.81 10.7264 170.539 10.4948C172.154 10.2785 173.181 9.86406 175.052 8.94851L178.248 6.10825L178.532 5.85568H178.912H184.181H185.167C185.359 5.74816 185.558 5.68894 185.729 5.65691C186.067 5.59338 186.425 5.60922 186.756 5.65525C187.423 5.74823 188.195 5.99663 188.944 6.32217C189.702 6.65115 190.483 7.07965 191.173 7.56488C191.819 8.02001 192.436 8.561 192.859 9.15908C193.365 9.66672 193.778 10.2234 193.934 10.8097C194.02 11.1366 194.036 11.5103 193.898 11.8812C193.758 12.2566 193.497 12.5319 193.203 12.7185C192.659 13.063 191.939 13.1499 191.23 13.1324C190.513 13.1148 189.654 12.9852 188.672 12.7464C186.77 12.756 184.277 12.993 182.347 13.4497C181.348 13.6862 180.589 13.9616 180.142 14.2406C179.999 14.3297 179.919 14.4002 179.877 14.4445L180.29 15.6768H178.9H178.9H178.9H178.9H178.9H178.9H178.9H178.899H178.899H178.899H178.899H178.899H178.898H178.898H178.898H178.897H178.897H178.897H178.896H178.896H178.896H178.895H178.895H178.895H178.894H178.894H178.893H178.893H178.892H178.892H178.891H178.891H178.89H178.89H178.889H178.888H178.888H178.887H178.887H178.886H178.885H178.885H178.884H178.883H178.882H178.882H178.881H178.88H178.879H178.878H178.878H178.877H178.876H178.875H178.874H178.873H178.872H178.872H178.871H178.87H178.869H178.868H178.867H178.866H178.865H178.864H178.863H178.861H178.86H178.859H178.858H178.857H178.856H178.855H178.853H178.852H178.851H178.85H178.849H178.847H178.846H178.845H178.843H178.842H178.841H178.839H178.838H178.837H178.835H178.834H178.832H178.831H178.83H178.828H178.827H178.825H178.824H178.822H178.821H178.819H178.817H178.816H178.814H178.813H178.811H178.809H178.808H178.806H178.804H178.803H178.801H178.799H178.797H178.796H178.794H178.792H178.79H178.788H178.786H178.785H178.783H178.781H178.779H178.777H178.775H178.773H178.771H178.769H178.767H178.765H178.763H178.761H178.759H178.757H178.755H178.753H178.751H178.749H178.746H178.744H178.742H178.74H178.738H178.735H178.733H178.731H178.729H178.726H178.724H178.722H178.719H178.717H178.715H178.712H178.71H178.708H178.705H178.703H178.7H178.698H178.695H178.693H178.69H178.688H178.685H178.683H178.68H178.678H178.675H178.672H178.67H178.667H178.664H178.662H178.659H178.656H178.654H178.651H178.648H178.645H178.643H178.64H178.637H178.634H178.631H178.628H178.626H178.623H178.62H178.617H178.614H178.611H178.608H178.605H178.602H178.599H178.596H178.593H178.59H178.587H178.584H178.581H178.577H178.574H178.571H178.568H178.565H178.562H178.558H178.555H178.552H178.549H178.545H178.542H178.539H178.536H178.532H178.529H178.526H178.522H178.519H178.515H178.512H178.508H178.505H178.502H178.498H178.495H178.491H178.488H178.484H178.48H178.477H178.473H178.47H178.466H178.462H178.459H178.455H178.451H178.448H178.444H178.44H178.437H178.433H178.429H178.425H178.421H178.418H178.414H178.41H178.406H178.402H178.398H178.394H178.391H178.387H178.383H178.379H178.375H178.371H178.367H178.363H178.359H178.355H178.351H178.346H178.342H178.338H178.334H178.33H178.326H178.322H178.317H178.313H178.309H178.305H178.3H178.296H178.292H178.288H178.283H178.279H178.275H178.27H178.266H178.261H178.257H178.253H178.248H178.244H178.239H178.235H178.23H178.226H178.221H178.217H178.212H178.208H178.203H178.198H178.194H178.189H178.185H178.18H178.175H178.17H178.166H178.161H178.156H178.152H178.147H178.142H178.137H178.132H178.128H178.123H178.118H178.113H178.108H178.103H178.098H178.093H178.088H178.083H178.078H178.073H178.068H178.063H178.058H178.053H178.048H178.043H178.038H178.033H178.028H178.023H178.017H178.012H178.007H178.002H177.997H177.991H177.986H177.981H177.976H177.97H177.965H177.96H177.954H177.949H177.943H177.938H177.933H177.927H177.922H177.916H177.911H177.905H177.9H177.894H177.889H177.883H177.878H177.872H177.867H177.861H177.855H177.85H177.844H177.838H177.833H177.827H177.821H177.816H177.81H177.804H177.798H177.792H177.787H177.781H177.775H177.769H177.763H177.757H177.751H177.746H177.74H177.734H177.728H177.722H177.716H177.71H177.704H177.698H177.692H177.686H177.68H177.673H177.667H177.661H177.655H177.649H177.643H177.637H177.63H177.624H177.618H177.612H177.605H177.599H177.593H177.586H177.58H177.574H177.567H177.561H177.555H177.548H177.542H177.535H177.529H177.523H177.516H177.51H177.503H177.497H177.49H177.483H177.477H177.47H177.464H177.457H177.45H177.444H177.437H177.43H177.424H177.417H177.41H177.404H177.397H177.39H177.383H177.377H177.37H177.363H177.356H177.349H177.342H177.335H177.328H177.322H177.315H177.308H177.301H177.294H177.287H177.28H177.273H177.266H177.259H177.252H177.244H177.237H177.23H177.223H177.216H177.209H177.202H177.194H177.187H177.18H177.173H177.165H177.158H177.151H177.144H177.136H177.129H177.122H177.114H177.107H177.099H177.092H177.085H177.077H177.07H177.062H177.055H177.047H177.04H177.032H177.025H177.017H177.01H177.002H176.994H176.987H176.979H176.971H176.964H176.956H176.948H176.941H176.933H176.925H176.917C176.476 15.6768 175.978 15.8454 175.541 16.0599C175.332 16.1624 175.158 16.2651 175.038 16.3413C174.978 16.3791 174.933 16.4097 174.904 16.4296C174.897 16.4345 174.891 16.4388 174.886 16.4423C174.881 16.4458 174.877 16.4485 174.874 16.4505ZM115.978 1.90275C115.978 1.90286 115.971 1.90913 115.962 1.92137C115.974 1.90876 115.979 1.90263 115.978 1.90275ZM109.645 8.65078C109.578 8.67435 109.519 8.69755 109.467 8.71997L109.872 8.84112L109.324 9.00242C109.322 9.02588 109.32 9.05125 109.317 9.07843C109.304 9.22051 109.277 9.41408 109.226 9.64228C109.21 9.7129 109.191 9.78728 109.17 9.86484C109.23 9.87127 109.292 9.87808 109.355 9.8853C110.446 10.0087 112.093 10.2514 114.373 10.7287H122.557C121.927 10.5802 121.326 10.4312 120.77 10.2817C119.848 10.0339 119.017 9.77672 118.362 9.50774C118.034 9.37333 117.726 9.22654 117.464 9.06377C117.282 8.95087 117.081 8.80546 116.908 8.61839C116.842 8.59075 116.721 8.54673 116.525 8.49793C116.223 8.42306 115.83 8.35728 115.369 8.30723C114.448 8.20727 113.328 8.17775 112.265 8.23571C111.184 8.29461 110.244 8.43985 109.645 8.65078ZM44.5654 12.2548C44.2862 12.2899 44.0169 12.325 43.7575 12.36C44.6836 12.3747 45.7177 12.3783 46.8455 12.3716C51.957 12.3411 58.9076 12.0985 66.2395 11.7336C80.8754 11.0051 96.9193 9.79438 102.84 8.82702L102.85 8.82415L102.781 8.80342C102.78 8.80321 102.78 8.80301 102.779 8.8028C101.231 8.34737 98.1826 7.86846 94.8295 7.62767C91.4766 7.38689 87.9475 7.39392 85.4322 7.85652L85.3426 7.87302H85.2514C84.0241 7.87302 73.5339 8.83171 60.9991 10.7918L60.9571 10.7983L60.9146 10.8013C53.9951 11.2866 48.4119 11.7707 44.5654 12.2548Z" fill="#F4D54B" stroke="#F4D54B" stroke-width="2"/>
</svg>
